<?xml version="1.0" encoding="UTF-8" standalone="no"?>
<svg
   xmlns:dc="http://purl.org/dc/elements/1.1/"
   xmlns:cc="http://creativecommons.org/ns#"
   xmlns:rdf="http://www.w3.org/1999/02/22-rdf-syntax-ns#"
   xmlns:svg="http://www.w3.org/2000/svg"
   xmlns="http://www.w3.org/2000/svg"
   xmlns:xlink="http://www.w3.org/1999/xlink"
   version="1.1"
   id="svg374"
   xml:space="preserve"
   width="394.85266"
   height="219.39406"
   viewBox="0 0 394.85266 219.39406"><metadata
     id="metadata380"><rdf:RDF><cc:Work
         rdf:about=""><dc:format>image/svg+xml</dc:format><dc:type
           rdf:resource="http://purl.org/dc/dcmitype/StillImage" /><dc:title></dc:title></cc:Work></rdf:RDF></metadata><defs
     id="defs378"><clipPath
       clipPathUnits="userSpaceOnUse"
       id="clipPath3582"><path
         d="m 3559.37,271.852 c 0.02,0.007 0.05,0.007 0.07,0.007 h -0.01 c -0.02,0 -0.04,0 -0.06,-0.007"
         id="path3580" /></clipPath><clipPath
       clipPathUnits="userSpaceOnUse"
       id="clipPath4208"><path
         d="m 2941.46,640.398 c 0,0.012 0,0.012 0,0.012 -0.02,0.57 -0.07,1.129 -0.13,1.699 0,0.02 0,0.039 0,0.063 0.06,-0.594 0.11,-1.172 0.13,-1.774"
         id="path4206" /></clipPath><clipPath
       clipPathUnits="userSpaceOnUse"
       id="clipPath11354"><path
         d="m 3628.86,666.672 c 3.43,5.816 6.91,11.609 10.47,17.367 12.42,20.16 26.46,39.691 37.98,60.481 8.28,15.031 14.76,30.96 23.22,45.902 7.83,13.949 17.91,26.008 31.68,33.387 -2.97,1.082 -5.22,2.613 -5.31,5.492 0,0.898 0.18,1.89 0.54,3.058 -6.12,-4.05 -12.06,-8.73 -17.55,-14.308 -31.59,-31.949 -45.18,-77.762 -67.86,-115.563 -7.17,-11.929 -14.35,-23.867 -21.52,-35.816 h -7.2 c 23.88,40.277 49.18,95.488 72.01,133.019 7.47,12.239 17.46,25.829 27.9,38.25 -2.25,1.168 -3.78,2.789 -3.69,5.129 0,0.989 0.27,2.071 0.9,3.239 -3.87,1.531 -11.88,1.171 -16.56,2.972 l -41.94,-67.949 c -0.09,-0.094 -0.09,-0.094 -0.09,-0.184 l -35.1,-56.789 v 0.09 l -25.83,-41.847 -3.39,-15.93 h -5.77 l 0.25,1.437 -10.17,2.25 10.17,-2.25 -0.89,-1.437 h -15.89 c -0.75,1.66 -1.27,3.137 -1.04,3.687 0,0 19.17,11.25 26.01,20.25 2.97,3.871 14.85,22.95 30.87,48.871 9.09,33.032 19.26,72.989 45.27,116.282 2.07,3.418 3.78,6.57 5.31,9.539 -1.44,1.98 -1.98,4.32 -1.98,6.84 -0.09,8.55 6.03,19.89 7.56,30.781 l 1.44,1.437 c -1.89,11.25 -5.85,21.243 -1.62,37.711 1.44,5.578 6.03,13.321 12.06,22.231 -0.18,2.25 0,4.59 0.54,6.75 0,0.09 0.09,0.179 0.09,0.359 0,0.09 0.09,0.18 0.09,0.27 0.09,0.179 0.09,0.449 0.18,0.629 0,0 0.18,0 0.45,-0.09 0.09,0 0.09,0 0.18,-0.09 0,0.09 0,0.269 -0.09,0.359 -0.54,2.25 -1.35,4.41 -2.25,6.481 -2.97,6.39 -7.74,11.883 -12.24,17.191 0.18,0.18 0.27,0.449 0.45,0.629 1.53,1.981 3.06,2.883 4.59,2.883 2.34,0 4.59,-1.981 6.57,-4.863 0,1.8 2.16,1.89 6.48,0.453 1.62,-0.543 1.8,-2.434 3.42,-3.242 0.63,-0.36 1.17,0.628 2.07,1.531 0.9,0.808 2.16,1.621 4.23,1.437 3.96,-0.269 3.96,-4.769 8.28,-3.867 4.41,0.899 3.51,1.258 6.75,3.867 2.25,1.891 7.92,3.422 10.89,3.692 4.77,0.449 5.58,-1.532 5.4,-6.121 -9,-2.52 -11.88,-16.11 -15.12,-23.219 1.8,-1.078 2.88,-2.969 3.33,-5.309 1.17,2.52 2.25,4.949 3.42,7.469 l 21.15,-0.18 c 9.09,-0.179 13.86,-5.129 12.6,-12.148 0,0.09 0,0.09 0,0.09 -0.36,-1.981 -1.17,-4.141 -2.61,-6.301 l -39.33,-63.719 v 0.09 l -7.47,-12.152 c 8.73,-0.18 16.2,-5.848 14.22,-15.66 2.7,0.449 6.57,0.539 10.26,0.089 10.8,9.993 20.52,16.473 26.91,16.473 -0.99,-13.863 -2.52,-24.75 -4.23,-28.711 3.6,-0.539 6.84,-1.801 8.82,-4.141 1.71,-2.07 2.52,-5.039 1.44,-9.179 l 0.9,0.09 c 3.78,0.269 9.27,0.898 12.87,-0.45 2.16,-0.812 3.6,-2.07 4.77,-3.421 0.81,-0.899 1.53,-1.891 2.25,-2.7 l 2.16,-1.8 0.63,-0.27 c 4.32,-1.891 15.48,-2.34 20.43,-6.75 1.44,-1.262 2.43,-2.879 2.43,-4.949 0,-0.09 0,-0.27 0,-0.36 0,-0.089 0,-0.089 0,-0.179 4.95,0 10.98,-0.09 14.58,-3.242 0.99,-0.899 1.8,-2.071 2.25,-3.508 0.09,-0.09 0.09,-0.09 0.09,-0.18 0.09,-0.184 0.09,-0.363 0.18,-0.633 0,0 0,-0.09 0,-0.179 0.09,-0.27 0.18,-0.54 0.18,-0.809 6.93,1.801 19.53,2.969 26.64,-1.262 0.72,-0.449 1.44,-0.988 2.07,-1.617 0.09,0 0.09,-0.094 0.18,-0.184 0.09,0 0.09,-0.089 0.18,-0.089 0.45,-0.539 0.9,-1.079 1.26,-1.707 0.09,0.359 0.09,0.628 0.18,0.898 -0.72,0.898 -1.26,2.07 -1.71,3.238 0,0.094 -0.09,0.274 -0.09,0.364 -0.09,0.089 -0.09,0.179 -0.09,0.269 0,0.09 -0.09,0.09 -0.09,0.18 -0.45,1.711 -0.72,3.597 -0.72,5.488 0,1.621 0.18,3.242 0.54,4.77 v 0.089 c 0,0.184 0.09,0.364 0.09,0.633 0.09,0 0.09,0.09 0.09,0.09 0.09,0.27 0.09,0.539 0.18,0.719 0,0 0.27,-0.09 0.63,-0.09 0,0.18 -0.09,0.449 -0.18,0.719 -0.36,1.531 -0.81,2.883 -1.35,4.32 -0.27,0.539 -0.54,1.172 -0.81,1.711 0,0 0,0 0,0.09 -2.97,6.301 -7.74,11.879 -12.24,17.191 1.98,2.969 4.14,3.867 6.21,3.328 0.09,0.993 1.26,1.532 2.52,2.25 2.34,1.172 2.61,1.711 4.23,-0.718 1.89,0.808 2.88,0.808 4.86,0.449 2.61,-0.539 2.34,0.269 3.33,2.25 1.62,2.969 8.1,3.242 10.44,1.351 -0.54,-2.882 5.04,-2.16 6.57,-2.16 0.36,2.071 4.68,1.707 6.03,1.258 0.9,-0.269 2.7,-0.449 3.42,-0.988 1.26,-0.903 0.27,-1.442 0.09,-2.52 h 0.09 c 3.24,-0.359 6.57,0.36 8.19,-2.07 2.79,-0.27 3.33,-2.34 3.15,-6.031 -4.14,-1.258 -7.02,-4.86 -9.18,-9 l 11.52,-0.18 c -5.31,-6.57 -10.17,-13.23 -14.04,-19.441 0.09,-0.629 0.18,-1.258 0.18,-1.887 0,-0.09 0,-0.09 0,-0.09 v -0.094 l -0.09,-0.449 -0.09,-0.359 -0.09,-0.27 c -0.54,-1.078 -1.17,-2.07 -1.89,-3.058 l -0.72,-0.543 c 0.45,-0.09 0.9,-0.18 1.26,-0.36 0.18,-0.09 0.27,-0.179 0.45,-0.269 0.42,-0.25 0.84,-0.508 1.27,-0.84 0,-0.02 0.02,-0.059 0.08,-0.059 0.17,-0.172 0.39,-0.402 0.54,-0.633 0.72,-0.898 1.26,-1.976 1.62,-3.328 0.18,-0.359 0.27,-0.808 0.45,-1.261 L 3897.36,796 v -0.898 c -0.36,-0.813 -0.81,-1.711 -1.35,-2.52 1.98,0.18 3.87,0.359 5.76,0.359 5.22,8.821 11.61,19.079 18.54,28.801 l 17.19,7.738 3.87,-0.089 c -4.23,-4.95 -8.64,-10.352 -11.79,-14.942 -3.42,-5.039 -11.25,-16.019 -17.37,-25.289 0.18,-0.18 0.36,-0.359 0.54,-0.629 0,-0.09 0.09,-0.09 0.18,-0.179 0,-0.09 0.09,-0.18 0.09,-0.27 0.45,-0.633 0.81,-1.262 1.08,-1.98 0,-0.09 0,-0.18 0,-0.27 0.09,-0.094 0.09,-0.273 0.18,-0.363 0.09,-0.27 0.09,-0.449 0.18,-0.719 v -0.09 c 2.25,-0.269 5.58,0.809 9,1.801 4.5,1.348 9.27,2.699 12.33,0.988 0,0.09 0,0.09 0,0.09 0.51,-0.258 0.95,-0.598 1.37,-1.098 0.02,-0.019 0.04,-0.043 0.07,-0.07 -0.02,0.027 -0.04,0.051 -0.07,0.07 -0.02,0.028 -0.02,0.047 -0.02,0.11 0.27,-0.27 0.45,-0.629 0.72,-0.992 0.63,-0.989 0.99,-2.25 1.26,-3.957 v -0.09 c 0,-0.09 0,-0.274 0,-0.364 0.09,-0.179 0.09,-0.449 0.09,-0.628 13.05,6.929 25.65,2.968 25.47,-4.95 -0.09,-3.691 -2.97,-8.191 -9.9,-12.871 -8.01,-5.398 -46.53,-17.187 -48.24,-3.238 -1.98,0.18 -3.96,0 -5.94,-0.18 -1.71,-0.179 -3.51,-0.269 -5.13,-0.269 -12.78,-22.59 -32.13,-47.16 -75.87,-75.602 0,0 49.41,42.66 67.05,80.371 -0.27,0.629 -0.54,1.168 -0.81,1.891 -7.74,-3.063 -14.49,-3.512 -20.16,-0.363 -2.7,1.531 -3.42,2.972 -3.42,4.32 0,1.441 0.9,2.609 0.99,3.332 -7.29,-0.18 -21.87,-5.582 -23.04,4.051 -2.88,0.449 -5.04,0 -7.02,-0.543 -2.88,-0.719 -5.58,-1.438 -9.63,0.453 -3.15,1.437 -3.96,2.789 -3.87,3.957 0,1.172 0.9,2.25 1.17,2.973 -2.52,0.179 -4.86,0.179 -6.93,0.179 -3.51,0 -6.57,0 -9.63,0.719 -2.52,0.629 -3.24,2.16 -3.24,3.781 0,1.617 0.72,3.508 1.26,4.77 -6.84,-0.539 -14.58,-0.09 -21.42,3.597 1.08,2.071 0.99,5.582 2.16,7.563 -6.57,-0.902 -20.07,-1.262 -20.34,7.289 0,0.359 0,0.809 0.09,1.262 -6.12,-2.703 -17.91,-1.352 -17.64,6.476 0,0.364 0,0.813 0.09,1.172 -1.17,0.449 -2.52,0.719 -3.96,1.082 l -95.81,-155.07 h -16.63 m 55.83,187.469 c -10.98,-18.27 -19.08,-35.911 -25.56,-52.653 10.53,17.102 21.24,34.473 31.32,50.942 -0.09,0.359 -0.18,0.718 -0.18,1.172 -0.09,1.257 0.36,2.789 1.44,4.769 -1.62,0.09 -3.06,0.18 -4.5,0.359 -0.72,-1.531 -1.62,-3.058 -2.52,-4.589 m 181.35,-36.539 c 0.09,0 0.09,0 0.18,0 0,0.718 -0.09,1.437 -0.18,2.16 0.09,-0.813 0.09,-1.532 0,-2.16 m -173.16,123.117 c 0.18,-14.938 3.33,-32.129 2.43,-49.59 5.94,-1.707 9.63,-6.297 9.36,-12.328 0,-0.539 0,-1.082 -0.09,-1.621 -0.09,-0.27 -0.09,-0.539 -0.18,-0.809 0.27,0.09 0.63,0.18 0.9,0.27 5.04,8.097 9.72,15.66 14.13,22.679 -1.08,13.95 -10.35,26.282 -5.76,41.129 -2.7,-0.449 -5.31,-0.719 -8.01,-1.078 h -0.09 c -0.63,-0.09 -1.35,-0.18 -1.98,-0.269 h -0.18 c -2.61,0.089 -4.95,0.359 -6.57,0.898 -0.36,0.09 -0.54,0.09 -0.54,0.09 -0.09,0.09 -0.18,0.18 -0.27,0.269 -1.17,0.27 -2.25,0.629 -3.15,1.082 0,-0.269 0,-0.453 0,-0.722 m 2.16,31.14 h 0.09 c 0,0.18 0,0.36 -0.09,0.45 0,0.082 0,0.171 0,0.273 0,0 0,-0.094 0,-0.184 0,0 0,0 0,-0.089 0,-0.137 0,-0.278 0,-0.45 M 3582,668.109 v 0 m 430.83,81.45 c 1.8,11.972 -4.32,22.41 -6.21,33.57 -0.36,-0.09 -0.72,-0.09 -1.08,-0.18 h -0.09 c -0.9,0 -1.71,0.09 -2.61,0.09 0,0 0,0 -0.09,0 -0.36,0 -0.72,0.09 -1.08,0.09 -2.34,0.09 -4.59,0.269 -6.93,0.453 -0.09,0 -0.09,0 -0.18,0.09 -0.63,0 -1.26,0.09 -1.89,0.09 h -0.18 c -2.61,0.718 -5.04,1.527 -6.39,2.429 -0.27,0.09 -0.36,0.09 -0.36,0.09 -0.09,0.09 -0.09,0.09 -0.18,0.18 -4.23,2.07 -6.75,5.039 -6.39,7.469 0.18,1.531 1.71,2.789 4.05,3.601 0,0.09 0,0.09 0,0.18 0,0.09 0.09,0.18 0.09,0.359 0,0.18 0,0.36 0.09,0.539 0,0 0,0 0,0.09 0.27,1.531 0.63,3.063 1.17,4.41 -0.45,0.993 -0.81,2.25 -0.99,3.512 0,-0.09 0,-0.09 0,-0.09 -0.18,1.078 -0.18,2.25 -0.09,3.418 0,0.09 0,0.18 0,0.27 0,0.179 0,0.273 0,0.363 0.27,2.969 1.17,6.027 2.52,8.457 0,0 0,0 0.09,0 0.09,-0.09 0.27,-0.18 0.63,-0.359 0,1.172 -0.09,2.25 -0.27,3.242 -0.18,1.348 -0.36,2.609 -0.72,3.957 0,0 0,0 0,0.09 -1.62,6.84 -5.13,13.14 -8.46,19.261 0.18,0.18 0.36,0.36 0.54,0.54 0.63,0.539 1.26,0.992 1.89,1.261 0.09,0.09 0.09,0.09 0.18,0.09 0.09,0.09 0.09,0.09 0.18,0.09 1.44,0.629 2.7,0.629 3.87,0 0.27,1.078 1.53,1.258 2.97,1.711 2.52,0.719 2.88,1.168 3.96,-1.531 1.98,0.449 3.06,0.269 4.86,-0.539 2.43,-1.082 2.34,-0.18 3.78,1.527 2.07,2.609 8.55,1.531 10.44,-0.719 -1.08,-2.789 4.5,-3.148 5.94,-3.512 0.81,1.981 4.95,0.723 6.21,0 l 3.15,-1.707 c 1.08,-0.992 -0.09,-1.351 -0.45,-2.429 h 0.09 c 3.06,-0.992 6.48,-0.992 7.65,-3.602 2.7,-0.898 2.79,-3.058 1.89,-6.66 -1.53,-0.09 -2.88,-0.539 -4.23,-1.168 l 11.43,-0.184 c 11.79,-0.089 16.2,-8.277 9.99,-18.359 l -39.33,-63.719 c 0.18,1.168 0.36,2.16 0.54,3.239 m -22.05,67.41 h 0.09 c 0.09,0.363 0.09,0.812 0.18,1.172 -0.09,-0.45 -0.18,-0.809 -0.27,-1.172 m -95.94,-14.938 v 0 0 0 m -0.08,0.059 c -0.01,0.019 -0.01,0.031 -0.01,0.031 0.03,-0.031 0.06,-0.062 0.09,-0.09 -0.03,0.02 -0.06,0.039 -0.08,0.059 m -302.41,132.332 c -3.33,0 -6.75,0.269 -10.08,0.539 -0.18,0.09 -0.45,0.09 -0.63,0.09 -0.72,0.09 -1.35,0.09 -1.98,0.179 l -0.27,-0.089 c -2.43,0.629 -4.68,1.437 -6.12,2.339 -0.45,0.09 -0.63,0.18 -0.63,0.18 -0.09,0.09 -0.18,0.18 -0.27,0.27 -4.14,2.16 -6.66,5.039 -6.3,7.379 0.18,1.621 1.71,2.882 4.05,3.691 v 0.09 c 0,0.09 0.09,0.18 0.09,0.269 0.18,1.801 0.63,3.602 1.26,5.223 -0.72,1.527 -1.08,3.508 -1.08,5.578 0,2.789 0.63,5.852 1.71,8.461 0.09,0.09 0.09,0.18 0.18,0.359 0,0 0.09,0.09 0.09,0.18 0.09,0.18 0.18,0.36 0.27,0.449 0,0.09 0,0.09 0,0.18 0.09,0.18 0.27,0.449 0.36,0.633 0,0 0.18,-0.094 0.63,-0.274 0,1.082 -0.09,2.071 -0.27,3.153 -0.18,1.347 -0.36,2.699 -0.72,3.961 0,0 0,0 0,0.09 -1.62,6.839 -5.13,13.14 -8.46,19.257 0.18,0.18 0.36,0.36 0.54,0.539 0.63,0.543 1.26,0.993 1.89,1.262 0.09,0.09 0.18,0.09 0.18,0.18 0.09,0 0.09,0 0.18,0 0.18,0.09 0.36,0.18 0.54,0.269 1.98,0.629 3.6,0 5.04,-1.527 1.8,0.719 3.42,0.629 4.95,0.18 0.08,0.527 0.09,1.117 -0.07,1.566 l 0.79,-1.746 c 1.71,-0.633 3.42,-1.531 5.22,-2.07 0.18,0.629 0.45,1.168 0.9,1.617 0.09,-0.539 0.09,-1.168 0,-1.891 h 0.09 c 3.15,-0.718 5.67,1.082 8.55,1.352 -0.18,-0.449 -0.27,-0.899 -0.45,-1.352 1.35,1.352 3.24,2.973 4.23,2.614 2.07,-0.903 -1.44,-4.68 -2.07,-6.211 0.18,0 0.36,0.089 0.63,0.089 1.08,0.18 2.34,0.36 3.42,-0.089 0.36,-0.993 -0.72,-4.231 0.63,-3.692 0.27,0.09 0.54,0.18 0.81,0.36 0,0.902 0,1.89 0.27,2.793 0.27,0.988 1.08,3.597 2.25,4.046 0.54,-1.527 -0.63,-3.867 -0.9,-5.847 1.98,1.347 3.87,3.058 6.48,3.148 0.45,0.813 1.89,1.801 2.79,1.352 0.99,-0.36 0.45,-1.082 0,-1.891 0.18,-0.09 0.45,-0.18 0.72,-0.269 3.15,-0.993 6.66,-0.899 7.65,-3.602 2.7,-0.988 2.79,-3.059 1.89,-6.66 -4.95,-0.359 -8.82,-4.047 -12.06,-8.457 h 5.58 c -3.96,-4.953 -7.74,-9.992 -10.98,-14.852 0.09,-0.718 0.18,-1.351 0.18,-2.16 0,-0.719 -0.09,-1.441 -0.18,-2.16 l -0.45,-1.078 c -0.81,-0.902 -1.71,-1.801 -2.61,-2.613 l -0.72,-0.36 c 0.45,-0.179 0.81,-0.359 1.17,-0.629 0.81,-0.539 1.44,-1.351 1.89,-2.25 0.63,-1.078 0.9,-2.429 0.99,-3.871 0,-0.359 0.09,-0.629 0.09,-0.988 l -0.09,-0.27 c 0,-0.089 0,-0.089 0,-0.179 l -0.27,-0.903 -0.09,-0.269 c -0.63,-0.988 -1.44,-1.981 -2.25,-2.879 l -1.98,-1.172 c -0.27,-0.09 -0.63,-0.18 -0.9,-0.269 -1.98,-0.629 -3.87,-1.079 -5.94,-1.258 -0.09,-0.09 -0.18,-0.09 -0.27,-0.09 h -0.09 m -14.49,33.93 c 0.09,0.718 0.18,1.437 0.27,2.16 -0.09,-0.813 -0.27,-1.442 -0.45,-2.071 0.09,-0.089 0.09,-0.089 0.18,-0.089 -0.09,0 -0.09,0 -0.09,0 0,0 0,0 0.09,0 v 0 m 0,0 v 0 m -0.54,30.957 c 0.04,-0.067 0.08,-0.149 0.11,-0.231 l -0.11,0.231"
         clip-rule="evenodd"
         id="path11352" /></clipPath><clipPath
       clipPathUnits="userSpaceOnUse"
       id="clipPath17055"><path
         style="fill:none;stroke:#000000;stroke-width:7.5px;stroke-linecap:butt;stroke-linejoin:miter;stroke-opacity:1"
         d="M 2898.0033,631.52192 2859.7064,444.27826 3834.823,115.15118 3946.314,530.51401 2927.475,729.34674 Z"
         id="path17057" /></clipPath><clipPath
       clipPathUnits="userSpaceOnUse"
       id="clipPath17459"><path
         style="fill:none;stroke:#000000;stroke-width:0.75px;stroke-linecap:butt;stroke-linejoin:miter;stroke-opacity:1"
         d="m 288.7917,111.54693 4.84439,8.39072 84.64167,-15.06557 50.97027,-43.418121 -4.74934,-8.99538 -24.86669,-25.626578 -3.56543,-6.1755 -50.12154,-0.378188 -44.393,20.053531 -20.6006,8.695515 2.76057,4.974637 z"
         id="path17461" /></clipPath><rect
       id="SVGID_24_"
       height="128"
       style="opacity:0.2"
       width="128"
       x="0"
       y="0" /><clipPath
       clipPathUnits="userSpaceOnUse"
       id="clipPath23393"><path
         d="m 26228.9,4559.6 -92.3,7.2 v 0 l -15.9,1.3 108.2,-8.5 m -156.4,12.2 -22.4,1.8 -22,1.7 -31.4,2.5 v 0 l -99.8,7.8 v 0 l 175.6,-13.8 m -178.4,14 h -0.3 v 0 h 0.3 v 0"
         id="path23391" /></clipPath></defs><g
     id="g382"
     transform="matrix(1.3333333,0,0,-1.3333333,79.168503,78.28907)"><path
       style="fill:none;stroke:#000000;stroke-width:7.5;stroke-linecap:butt;stroke-linejoin:miter;stroke-miterlimit:4;stroke-dasharray:none;stroke-opacity:1"
       d="M 152.67901,56.807854 57.621928,-103.91979"
       id="path17463" /><g
       id="g19436"
       transform="matrix(-0.75000002,0,0,-0.75000002,30.776968,60.193694)"><g
         id="Layer_2"><g
           id="g18782"><linearGradient
             id="SVGID_1_"
             gradientUnits="userSpaceOnUse"
             x1="31.870501"
             x2="46.433701"
             y1="118.039"
             y2="93.073402"><stop
               offset="0"
               style="stop-color:#F8F8F8"
               id="stop18771" /><stop
               offset="0.4389"
               style="stop-color:#EBEBEB"
               id="stop18773" /><stop
               offset="1"
               style="stop-color:#D4D4D4"
               id="stop18775" /></linearGradient><path
             d="m 39.53,123.71 c -1.69,0 -3.72,-0.42 -5.87,-1.22 -1.03,-0.38 -2.3,-1.65 -2.62,-3.24 -0.35,-1.76 0.48,-3.64 2.4,-5.45 0.34,-0.32 0.71,-0.65 1.11,-0.99 1.85,-1.61 4.15,-3.62 4.51,-6.25 0.26,-1.95 -0.41,-3.86 -1.06,-5.71 -0.38,-1.08 -0.77,-2.2 -0.98,-3.32 -0.1,-0.54 -0.2,-1.09 -0.31,-1.64 -0.48,-2.49 -0.97,-5.06 -0.93,-7.37 0.02,-1.7 0.41,-4.74 2.71,-5.92 0.51,-0.26 1.22,-0.41 2.01,-0.41 1.89,0 4.63,0.85 6.14,3.25 1.91,3.03 2.46,7.97 2.82,11.25 l 0.11,0.98 c 1,8.63 -0.38,16.34 -4.01,22.29 -0.69,1.13 -1.57,2.38 -2.83,3.06 -0.87,0.46 -1.94,0.69 -3.2,0.69 z"
             style="fill:url(#SVGID_1_)"
             id="path18778" /><path
             d="m 40.48,83.2 v 0 c 1.76,0 4.07,0.86 5.28,2.78 1.78,2.83 2.32,7.64 2.67,10.82 0.04,0.34 0.07,0.67 0.11,0.98 0.98,8.4 -0.36,15.89 -3.86,21.64 -0.62,1.02 -1.39,2.13 -2.45,2.7 -0.7,0.38 -1.61,0.57 -2.71,0.57 -1.57,0 -3.48,-0.4 -5.51,-1.16 -0.66,-0.25 -1.71,-1.18 -1.98,-2.49 -0.36,-1.77 0.95,-3.43 2.1,-4.51 0.33,-0.31 0.7,-0.63 1.08,-0.96 1.98,-1.73 4.44,-3.87 4.85,-6.89 0.29,-2.19 -0.42,-4.22 -1.11,-6.18 -0.38,-1.09 -0.75,-2.13 -0.94,-3.16 -0.1,-0.55 -0.21,-1.1 -0.31,-1.65 -0.49,-2.55 -0.95,-4.96 -0.92,-7.17 0.02,-1.48 0.33,-4.1 2.16,-5.04 0.36,-0.17 0.93,-0.28 1.54,-0.28 m 0,-2.02 c -0.95,0 -1.81,0.18 -2.47,0.52 -2.29,1.18 -3.21,3.89 -3.26,6.81 -0.04,2.92 0.69,6.1 1.26,9.21 0.57,3.1 2.41,5.94 2.03,8.7 -0.37,2.77 -3.43,4.88 -5.3,6.64 -5.34,5.02 -1.82,9.49 0.56,10.38 2.11,0.79 4.28,1.29 6.22,1.29 1.37,0 2.62,-0.25 3.67,-0.81 1.42,-0.76 2.39,-2.06 3.22,-3.43 3.77,-6.19 5.16,-14.23 4.15,-22.93 -0.4,-3.42 -0.85,-9.11 -3.08,-12.65 -1.62,-2.57 -4.58,-3.73 -7,-3.73 z"
             style="fill:#b0b0b0"
             id="path18780" /></g><g
           id="g18795"><linearGradient
             id="SVGID_2_"
             gradientUnits="userSpaceOnUse"
             x1="80.231796"
             x2="80.231796"
             y1="78.346397"
             y2="121.204"><stop
               offset="0.2943"
               style="stop-color:#FFFFFF"
               id="stop18784" /><stop
               offset="0.5624"
               style="stop-color:#F2F2F2"
               id="stop18786" /><stop
               offset="1"
               style="stop-color:#D4D4D4"
               id="stop18788" /></linearGradient><path
             d="m 59.6,122.86 c -0.98,0 -1.73,-0.83 -1.73,-1.94 0,-1.09 0.75,-2.19 2.05,-3.02 1.3,-0.82 3.82,-1.8 8.46,-1.8 1.06,0 2.19,0.05 3.37,0.15 0.03,0 0.06,0 0.09,0 0.42,0 0.8,-0.26 0.95,-0.65 0.16,-0.42 0.02,-0.9 -0.34,-1.17 -0.47,-0.35 -11.42,-8.78 -5.95,-24.56 4.68,-13.5 12.13,-15.07 17.33,-15.07 1.84,0 3.89,0.23 6.26,0.7 5.94,1.19 13.53,9.78 12.39,21.07 -1.17,11.54 -9.95,18.45 -10.04,18.52 -0.25,0.19 -0.4,0.5 -0.39,0.81 0.01,0.31 0.16,0.62 0.41,0.81 1.57,1.15 3.73,3.4 3.41,4.56 -0.21,0.76 -1.78,1.36 -4.19,1.59 z"
             style="fill:url(#SVGID_2_)"
             id="path18791" /><path
             d="m 83.82,75.82 v 0 c 1.78,0 3.76,0.22 6.06,0.68 4.78,0.95 12.75,8.45 11.58,19.98 -1.12,11.08 -9.57,17.75 -9.65,17.82 -0.5,0.39 -0.8,0.99 -0.79,1.63 0.01,0.64 0.31,1.23 0.83,1.61 1.5,1.1 2.95,2.77 3.03,3.44 -0.16,0.14 -0.89,0.64 -3.25,0.87 H 59.6 c -0.47,0 -0.71,-0.47 -0.71,-0.92 0,-0.74 0.57,-1.53 1.57,-2.16 1.18,-0.75 3.52,-1.64 7.92,-1.64 1.03,0 2.13,0.05 3.29,0.15 0.06,0 0.12,0.01 0.17,0.01 0.83,0 1.59,-0.51 1.89,-1.3 0.32,-0.84 0.05,-1.8 -0.67,-2.35 -0.44,-0.34 -10.81,-8.38 -5.6,-23.42 4.46,-12.91 11.47,-14.4 16.36,-14.4 m 0,-2.03 c -7.14,0 -13.96,3.27 -18.28,15.75 -5.79,16.72 6.31,25.71 6.31,25.71 -1.24,-0.11 -2.4,-0.16 -3.46,-0.16 -14.15,0 -12.84,8.79 -8.78,8.79 h 32.12 c 10.83,-1 1.33,-7.97 1.33,-7.97 0,0 9.2,-7.07 10.43,-19.22 1.23,-12.14 -7.06,-20.94 -13.2,-22.17 -2.15,-0.43 -4.33,-0.73 -6.47,-0.73 z"
             style="fill:#b0b0b0"
             id="path18793" /></g><g
           id="g18808"><linearGradient
             id="SVGID_3_"
             gradientUnits="userSpaceOnUse"
             x1="96.400902"
             x2="119.2023"
             y1="79.902298"
             y2="79.902298"><stop
               offset="0.2943"
               style="stop-color:#FFFFFF"
               id="stop18797" /><stop
               offset="0.5624"
               style="stop-color:#F2F2F2"
               id="stop18799" /><stop
               offset="1"
               style="stop-color:#D4D4D4"
               id="stop18801" /></linearGradient><path
             d="m 107.12,91.01 c -1.08,0 -2.08,-0.58 -2.61,-1.52 -0.18,-0.32 -0.52,-0.51 -0.88,-0.51 -0.08,0 -0.16,0.01 -0.24,0.03 -0.2,0.05 -0.4,0.08 -0.6,0.09 h -0.14 c -1.61,0 -2.93,-1.23 -2.99,-2.81 0,-0.05 0.01,-0.1 0.01,-0.14 l 0.01,-0.17 C 99.7,85.6 99.51,85.23 99.17,85.04 97.51,84.09 96.48,82.4 96.4,80.53 c -0.08,-1.91 0.86,-3.71 2.49,-4.81 0.37,-0.25 0.54,-0.71 0.4,-1.14 -0.09,-0.28 -0.13,-0.51 -0.14,-0.73 -0.06,-1.63 1.24,-3.02 2.91,-3.09 h 0.1 c 0.23,0 0.47,0.03 0.76,0.1 0.08,0.02 0.16,0.03 0.24,0.03 0.27,0 0.54,-0.11 0.73,-0.31 1.03,-1.07 2.41,-1.7 3.89,-1.77 0.09,0 0.18,-0.01 0.26,-0.01 1.98,0 3.78,1.01 4.8,2.71 0.19,0.31 0.52,0.49 0.87,0.49 0.08,0 0.17,-0.01 0.25,-0.03 0.2,-0.05 0.41,-0.08 0.62,-0.09 h 0.14 c 1.61,0 2.93,1.24 2.99,2.81 0.02,0.49 -0.1,0.98 -0.34,1.45 -0.21,0.39 -0.13,0.88 0.19,1.19 0.99,0.99 1.57,2.28 1.63,3.63 0.08,1.96 -0.95,3.84 -2.68,4.92 -0.3,0.19 -0.48,0.51 -0.48,0.87 0.01,1.6 -1.27,2.92 -2.9,2.99 h -0.14 c -0.63,0 -1.23,-0.2 -1.76,-0.57 -0.17,-0.12 -0.38,-0.19 -0.59,-0.19 -0.07,0 -0.14,0.01 -0.22,0.02 -0.28,0.06 -0.52,0.24 -0.66,0.49 -0.52,0.91 -1.46,1.48 -2.51,1.53 z"
             style="fill:url(#SVGID_3_)"
             id="path18804" /><path
             d="m 108.06,69.81 v 0 c 1.62,0 3.09,0.83 3.93,2.22 0.37,0.62 1.04,0.98 1.74,0.98 0.16,0 0.33,-0.02 0.49,-0.06 0.14,-0.03 0.28,-0.05 0.42,-0.06 h 0.1 c 1.07,0 1.94,0.81 1.98,1.84 0.01,0.31 -0.06,0.63 -0.23,0.94 -0.41,0.79 -0.26,1.75 0.37,2.38 0.81,0.81 1.28,1.85 1.33,2.95 0.06,1.62 -0.76,3.12 -2.2,4.01 -0.6,0.37 -0.96,1.03 -0.96,1.73 0.01,1.06 -0.84,1.93 -1.93,1.98 h -0.09 c -0.52,0 -0.93,-0.21 -1.17,-0.39 -0.35,-0.25 -0.76,-0.38 -1.18,-0.38 -0.14,0 -0.29,0.02 -0.43,0.05 -0.56,0.12 -1.04,0.47 -1.33,0.97 -0.35,0.61 -0.98,0.99 -1.68,1.02 h -0.1 v 0 c -0.71,0 -1.37,-0.38 -1.73,-1 -0.37,-0.65 -1.05,-1.03 -1.76,-1.03 -0.16,0 -0.32,0.02 -0.48,0.06 -0.14,0.03 -0.27,0.05 -0.41,0.06 h -0.1 c -1.05,0 -1.91,-0.79 -1.97,-1.8 v -0.04 c 0.01,-0.07 0.01,-0.13 0.02,-0.2 0.05,-0.77 -0.34,-1.5 -1.01,-1.89 -1.35,-0.78 -2.2,-2.15 -2.26,-3.68 -0.06,-1.56 0.7,-3.02 2.05,-3.93 0.74,-0.5 1.07,-1.43 0.81,-2.28 -0.06,-0.2 -0.09,-0.35 -0.1,-0.47 -0.04,-1.08 0.83,-1.99 1.94,-2.04 h 0.06 c 0.15,0 0.31,0.02 0.52,0.08 0.16,0.04 0.32,0.06 0.48,0.06 0.55,0 1.08,-0.22 1.47,-0.63 0.85,-0.88 1.98,-1.4 3.2,-1.46 0.07,0.01 0.14,0.01 0.21,0.01 m 0,-2.03 c -0.1,0 -0.21,0 -0.31,0.01 -1.81,0.08 -3.42,0.87 -4.58,2.08 -0.32,-0.08 -0.66,-0.13 -1,-0.13 -0.05,0 -0.1,0 -0.15,0 -2.23,0.1 -3.96,1.96 -3.88,4.15 0.01,0.35 0.09,0.67 0.18,0.99 -1.84,1.24 -3.03,3.34 -2.94,5.69 0.09,2.31 1.39,4.27 3.27,5.35 -0.01,0.14 -0.03,0.27 -0.03,0.41 0.08,2.13 1.86,3.79 4,3.79 0.06,0 0.13,0 0.19,0 0.27,-0.01 0.54,-0.05 0.8,-0.12 0.69,1.21 1.99,2.03 3.49,2.03 0.06,0 0.12,0 0.19,0 1.45,-0.07 2.68,-0.88 3.35,-2.04 0.66,0.47 1.47,0.76 2.35,0.76 0.06,0 0.12,0 0.18,0 2.18,-0.1 3.88,-1.88 3.87,-4.01 1.97,-1.22 3.25,-3.38 3.16,-5.82 -0.07,-1.7 -0.8,-3.2 -1.93,-4.31 0.31,-0.59 0.48,-1.25 0.46,-1.96 -0.08,-2.13 -1.86,-3.79 -4,-3.79 -0.06,0 -0.13,0 -0.19,0 -0.28,0.01 -0.55,0.05 -0.82,0.12 -1.14,-1.92 -3.25,-3.2 -5.66,-3.2 z"
             style="fill:#b0b0b0"
             id="path18806" /></g><linearGradient
           id="SVGID_4_"
           gradientUnits="userSpaceOnUse"
           x1="98.005699"
           x2="98.005699"
           y1="74.2118"
           y2="74.2118"><stop
             offset="0.2943"
             style="stop-color:#FFFFFF"
             id="stop18810" /><stop
             offset="0.5624"
             style="stop-color:#F2F2F2"
             id="stop18812" /><stop
             offset="1"
             style="stop-color:#D4D4D4"
             id="stop18814" /></linearGradient><path
           d="M 98.01,74.21"
           style="fill:url(#SVGID_4_);stroke:#b0b0b0;stroke-width:2.0276;stroke-linejoin:round;stroke-miterlimit:10"
           id="path18817" /><linearGradient
           id="SVGID_5_"
           gradientUnits="userSpaceOnUse"
           x1="73.264503"
           x2="73.264503"
           y1="89.237701"
           y2="89.237701"><stop
             offset="0.2943"
             style="stop-color:#FFFFFF"
             id="stop18819" /><stop
             offset="0.5624"
             style="stop-color:#F2F2F2"
             id="stop18821" /><stop
             offset="1"
             style="stop-color:#D4D4D4"
             id="stop18823" /></linearGradient><path
           d="M 73.26,89.24"
           style="fill:url(#SVGID_5_);stroke:#b0b0b0;stroke-width:2.0276;stroke-linejoin:round;stroke-miterlimit:10"
           id="path18826" /><g
           id="g18839"><linearGradient
             id="SVGID_6_"
             gradientUnits="userSpaceOnUse"
             x1="68.715202"
             x2="68.715202"
             y1="63.846199"
             y2="123.1784"><stop
               offset="0.2943"
               style="stop-color:#FFFFFF"
               id="stop18828" /><stop
               offset="0.5624"
               style="stop-color:#F2F2F2"
               id="stop18830" /><stop
               offset="1"
               style="stop-color:#D4D4D4"
               id="stop18832" /></linearGradient><path
             d="m 65.34,123 c -2.25,0 -3.42,-1.65 -3.39,-2.94 0.03,-1.57 1.85,-3.25 5.82,-3.25 0.59,0 1.22,-0.01 1.87,0.06 0.04,0 0.07,-0.02 0.11,-0.02 0.51,0 0.95,-0.39 1.01,-0.91 0.06,-0.55 -0.33,-1.06 -0.89,-1.13 -1.63,-0.2 -3.35,-0.36 -5.12,-0.53 -7.93,-0.76 -16.91,-1.62 -22.73,-5.8 -9.55,-6.86 -16.08,-19.22 -16.64,-31.5 -0.04,-0.88 0.91,-2.48 1.68,-3.77 0.57,-0.96 1.11,-1.87 1.38,-2.64 1.81,-5.22 7.93,-7.55 13.2,-7.55 0.88,0 1.73,0.07 2.55,0.19 1.96,0.31 2.98,1.32 4.39,2.71 0.26,0.26 0.53,0.52 0.81,0.79 2.84,2.7 7.2,4.76 10.84,5.14 0.4,0.04 0.8,0.06 1.19,0.06 2.68,0 5.13,-1.02 7.96,-2.09 4.3,-1.62 9.65,-3.8 18.7,-3.8 h 0.16 c 13.14,0 23.83,11.52 23.83,25.31 0,6 -4.87,31.69 -14.6,31.69 H 65.34 Z"
             style="fill:url(#SVGID_6_)"
             id="path18835" /><path
             d="m 41.63,64.02 c 0.82,0 1.63,0.06 2.39,0.18 1.64,0.26 2.46,1.08 3.83,2.43 0.27,0.26 0.54,0.53 0.83,0.81 2.99,2.84 7.59,5.02 11.43,5.41 0.43,0.04 0.86,0.07 1.3,0.07 2.86,0 5.39,-1.06 8.32,-2.17 C 73.95,69.15 79.21,67 88.08,67 h 0.15 c 12.58,0 22.82,10.87 22.82,24.1 0,2.43 -1.1,10.62 -3.63,17.97 -1.63,4.73 -5.1,12.93 -9.95,12.93 H 65.39 c -1.6,0 -2.44,-1.14 -2.42,-1.92 0.02,-1.07 1.68,-2.26 4.81,-2.26 0.55,0 1.15,-0.02 1.76,0.05 0.07,0.01 0.15,-0.01 0.22,-0.01 1.02,0 1.89,-0.78 2.01,-1.81 0.13,-1.11 -0.67,-2.12 -1.77,-2.25 -1.65,-0.2 -3.34,-0.36 -5.14,-0.53 -7.8,-0.75 -16.64,-1.59 -22.24,-5.62 C 33.31,100.96 26.94,88.9 26.4,76.93 c -0.02,-0.58 0.99,-2.29 1.54,-3.21 0.6,-1.01 1.16,-1.96 1.47,-2.83 1.62,-4.72 7.47,-6.87 12.22,-6.87 v 0 m 0,-2.03 c -5.75,0 -12.23,2.66 -14.15,8.23 -0.62,1.8 -3.2,4.89 -3.12,6.79 0.56,12.3 7.03,25.06 17.07,32.27 7.36,5.29 19.26,5.43 28.32,6.51 -0.71,-0.08 -1.37,0.08 -1.98,0.08 -9.04,0 -8.33,7.12 -2.43,8.12 h 32.12 c 10.83,0 15.61,-26.92 15.61,-32.69 0,-13.98 -10.89,-26.31 -24.84,-26.31 -0.05,0 -0.11,0 -0.16,0 -15.23,0 -20.33,5.79 -26.65,5.79 -0.36,0 -0.72,0.03 -1.09,-0.01 -3.51,-0.36 -7.68,-2.41 -10.24,-4.84 -1.85,-1.75 -3.05,-3.33 -5.74,-3.75 -0.88,-0.13 -1.79,-0.19 -2.72,-0.19 z"
             style="fill:#b0b0b0"
             id="path18837" /></g><linearGradient
           id="SVGID_7_"
           gradientUnits="userSpaceOnUse"
           x1="52.513401"
           x2="41.537998"
           y1="92.399002"
           y2="124.4106"><stop
             offset="0"
             style="stop-color:#F8F8F8"
             id="stop18841" /><stop
             offset="0.4389"
             style="stop-color:#EBEBEB"
             id="stop18843" /><stop
             offset="1"
             style="stop-color:#D4D4D4"
             id="stop18845" /></linearGradient><path
           d="m 58.33,96.25 c -0.42,7.85 -2.89,15.6 -7.22,22.14 -0.96,1.44 -2.02,2.85 -3.42,3.86 -2.49,1.81 -5.78,2.15 -8.81,1.67 -2,-0.31 -4.28,-1.32 -4.62,-3.34 -0.24,-1.48 0.72,-2.92 1.9,-3.83 1.18,-0.91 2.58,-1.47 3.8,-2.33 2.23,-1.58 3.69,-4.09 4.45,-6.73 0.76,-2.64 0.62,-13.73 1.1,-16.45"
           style="fill:url(#SVGID_7_);stroke:#b0b0b0;stroke-width:2.0276;stroke-linejoin:round;stroke-miterlimit:10"
           id="path18848" /><g
           id="g18948"><g
             id="g18882"><g
               id="g18869"><linearGradient
                 id="SVGID_8_"
                 gradientTransform="matrix(0.9989,-0.0476,0.0476,0.9989,-2.4063,3.8119)"
                 gradientUnits="userSpaceOnUse"
                 x1="11.8794"
                 x2="29.226999"
                 y1="4.2511001"
                 y2="40.873901"><stop
                   offset="0.2943"
                   style="stop-color:#FFFFFF"
                   id="stop18850" /><stop
                   offset="0.4354"
                   style="stop-color:#FBFBFB"
                   id="stop18852" /><stop
                   offset="0.5626"
                   style="stop-color:#F0F0F0"
                   id="stop18854" /><stop
                   offset="0.6845"
                   style="stop-color:#DEDEDE"
                   id="stop18856" /><stop
                   offset="0.803"
                   style="stop-color:#C4C4C4"
                   id="stop18858" /><stop
                   offset="0.918"
                   style="stop-color:#A3A3A3"
                   id="stop18860" /><stop
                   offset="1"
                   style="stop-color:#878787"
                   id="stop18862" /></linearGradient><path
                 d="M 32.96,50.15 C 29.85,50.15 18.94,43.37 12.61,32.21 5.33,19.36 3.72,9.2 8.52,6.33 9.01,6.04 9.59,5.89 10.24,5.89 c 4.76,0 12.43,7.44 18.24,17.68 7.27,12.82 6.15,25.54 4.73,26.56 0,0 0,0 0,0 -0.01,-0.01 -0.09,0.02 -0.25,0.02 z"
                 style="fill:url(#SVGID_8_)"
                 id="path18865" /><path
                 d="m 10.25,6.93 v 0 c 3.69,0 11.01,6.01 17.33,17.15 6.25,11.02 6.23,22.46 5.08,24.99 C 29.78,48.62 19.66,42.5 13.53,31.69 6.65,19.57 4.86,9.74 9.06,7.23 9.39,7.03 9.78,6.93 10.25,6.93 m 0,-2.09 c -0.83,0 -1.59,0.19 -2.26,0.59 -5.78,3.46 -3.42,14.72 3.71,27.3 6.49,11.44 17.62,18.47 21.26,18.47 0.36,0 0.65,-0.07 0.85,-0.21 C 36.14,49.35 36.52,35.64 29.39,23.06 23.25,12.22 15.39,4.84 10.25,4.84 Z"
                 style="fill:#b0b0b0"
                 id="path18867" /></g><g
               id="g18880"><linearGradient
                 id="SVGID_9_"
                 gradientTransform="matrix(0.9989,-0.0476,0.0476,0.9989,-2.4063,3.8119)"
                 gradientUnits="userSpaceOnUse"
                 x1="17.0054"
                 x2="25.5555"
                 y1="15.0492"
                 y2="33.099602"><stop
                   offset="0.1628"
                   style="stop-color:#FF87A8"
                   id="stop18871" /><stop
                   offset="0.3056"
                   style="stop-color:#F87C9F"
                   id="stop18873" /><stop
                   offset="0.998"
                   style="stop-color:#D94874"
                   id="stop18875" /></linearGradient><path
                 d="m 24.85,25.81 c 3.37,5.95 3.19,12.44 2.09,13.22 -1.05,0.74 -7.09,-2.69 -10.46,-8.64 -3.37,-5.95 -4.49,-11.28 -1.76,-12.91 2.28,-1.37 6.76,2.38 10.13,8.33 z"
                 style="fill:url(#SVGID_9_)"
                 id="path18878" /></g></g><g
             id="g18916"><g
               id="g18903"><linearGradient
                 id="SVGID_10_"
                 gradientTransform="matrix(-0.9989,0.0476,0.0476,0.9989,172.8098,-4.5313)"
                 gradientUnits="userSpaceOnUse"
                 x1="106.5389"
                 x2="123.8865"
                 y1="4.2508998"
                 y2="40.873501"><stop
                   offset="0.2943"
                   style="stop-color:#FFFFFF"
                   id="stop18884" /><stop
                   offset="0.4198"
                   style="stop-color:#FBFBFB"
                   id="stop18886" /><stop
                   offset="0.5495"
                   style="stop-color:#EEEEEE"
                   id="stop18888" /><stop
                   offset="0.6813"
                   style="stop-color:#DADADA"
                   id="stop18890" /><stop
                   offset="0.8144"
                   style="stop-color:#BDBDBD"
                   id="stop18892" /><stop
                   offset="0.9474"
                   style="stop-color:#989898"
                   id="stop18894" /><stop
                   offset="1"
                   style="stop-color:#878787"
                   id="stop18896" /></linearGradient><path
                 d="m 47.32,49.46 c -0.1,0 -0.14,-0.01 -0.14,-0.01 -1.5,-0.86 -3.82,-13.42 2.2,-26.88 4.94,-11.03 12.19,-19.35 16.86,-19.35 0.5,0 0.96,0.1 1.37,0.3 5.05,2.4 4.42,12.67 -1.61,26.15 -5.32,11.9 -15.84,19.79 -18.68,19.79 z"
                 style="fill:url(#SVGID_10_)"
                 id="path18899" /><path
                 d="m 66.24,4.27 c 0.34,0 0.65,0.06 0.92,0.2 4.42,2.1 3.57,12.06 -2.12,24.78 C 59.85,40.86 50.25,47.74 47.65,48.38 46.26,45.98 45.15,34.59 50.33,23.01 55.58,11.27 62.54,4.27 66.24,4.27 m 0,-2.09 c -5.15,0 -12.57,8.24 -17.81,19.97 -5.9,13.2 -4.22,26.81 -1.74,28.22 0.17,0.09 0.38,0.14 0.63,0.14 3.38,0 14.15,-8.14 19.64,-20.41 C 72.86,16.9 74.15,5.47 68.07,2.58 67.5,2.3 66.89,2.18 66.24,2.18 Z"
                 style="fill:#b0b0b0"
                 id="path18901" /></g><g
               id="g18914"><linearGradient
                 id="SVGID_11_"
                 gradientTransform="matrix(-0.9989,0.0476,0.0476,0.9989,172.8098,-4.5313)"
                 gradientUnits="userSpaceOnUse"
                 x1="111.6651"
                 x2="120.2153"
                 y1="15.0492"
                 y2="33.099602"><stop
                   offset="0.1628"
                   style="stop-color:#FF87A8"
                   id="stop18905" /><stop
                   offset="0.3056"
                   style="stop-color:#F87C9F"
                   id="stop18907" /><stop
                   offset="0.998"
                   style="stop-color:#D94874"
                   id="stop18909" /></linearGradient><path
                 d="m 53.21,24.46 c -2.79,6.25 -2,12.68 -0.82,13.35 1.12,0.64 6.8,-3.35 9.59,-9.59 2.79,-6.25 3.4,-11.66 0.52,-13.02 -2.4,-1.15 -6.49,3.01 -9.29,9.26 z"
                 style="fill:url(#SVGID_11_)"
                 id="path18912" /></g></g><g
             id="g18929"><linearGradient
               id="SVGID_12_"
               gradientTransform="matrix(0.9989,-0.0476,0.0476,0.9989,-2.4063,3.8119)"
               gradientUnits="userSpaceOnUse"
               x1="40.376701"
               x2="40.376701"
               y1="80.695999"
               y2="32.188499"><stop
                 offset="0"
                 style="stop-color:#D4D4D4"
                 id="stop18918" /><stop
                 offset="0.2916"
                 style="stop-color:#E3E3E3"
                 id="stop18920" /><stop
                 offset="0.7057"
                 style="stop-color:#FFFFFF"
                 id="stop18922" /></linearGradient><path
               d="M 38.83,82.57 C 27.39,82.57 13.6,79.12 12.82,62.69 12.46,55.11 14.62,48.16 18.89,43.13 23.59,37.6 30.7,34.46 39.45,34.05 40.1,34.02 40.74,34 41.36,34 57.2,34 67.93,44.22 68.68,60.03 69.57,78.42 52.2,82 41.76,82.5 c -0.99,0.04 -1.98,0.07 -2.93,0.07 z"
               style="fill:url(#SVGID_12_)"
               id="path18925" /><path
               d="m 41.37,35.04 c 7.89,0 14.52,2.53 19.16,7.32 4.31,4.45 6.77,10.57 7.11,17.72 0.32,6.66 -1.86,11.88 -6.47,15.49 -4.4,3.45 -11.13,5.49 -19.47,5.88 -0.98,0.05 -1.95,0.07 -2.88,0.07 -10.98,0 -24.23,-3.28 -24.97,-18.89 -0.76,-15.96 9.31,-26.77 25.64,-27.55 0.64,-0.02 1.27,-0.04 1.88,-0.04 v 0 m 0,-2.09 c -0.64,0 -1.3,0.02 -1.96,0.05 -19.25,0.92 -28.36,14.37 -27.63,29.74 0.69,14.47 11.24,20.88 27.06,20.88 0.97,0 1.97,-0.02 2.98,-0.07 C 58.94,82.73 70.47,75.35 69.74,59.99 69.03,45.14 59.36,32.95 41.37,32.95 Z"
               style="fill:#b0b0b0"
               id="path18927" /></g><g
             id="g18935"><ellipse
               cx="53.720001"
               cy="53.610001"
               rx="4.0599999"
               ry="4.3800001"
               style="fill:#404040"
               transform="matrix(0.9989,-0.0476,0.0476,0.9989,-2.4891,2.6159)"
               id="ellipse18931" /><ellipse
               cx="27.110001"
               cy="54.75"
               rx="4.0599999"
               ry="4.3800001"
               style="fill:#404040"
               transform="matrix(0.9989,-0.0476,0.0476,0.9989,-2.5735,1.3512)"
               id="ellipse18933" /></g><path
             d="m 52.11,68.61 c -0.15,1.07 -0.62,2.09 -1.4,2.93 -2.08,2.23 -5.62,2.31 -7.9,0.18 C 41.89,70.87 41.22,68.13 41,67 c -0.08,1.14 -0.42,3.91 -1.23,4.83 -2.02,2.28 -5.55,2.46 -7.89,0.38 C 31,71.43 30.42,70.44 30.14,69.39"
             style="fill:none;stroke:#b0b0b0;stroke-width:1.9624;stroke-linecap:round;stroke-linejoin:round;stroke-miterlimit:10"
             id="path18937" /><linearGradient
             id="SVGID_13_"
             gradientTransform="matrix(0.9989,-0.0476,0.0476,0.9989,-2.4063,3.8119)"
             gradientUnits="userSpaceOnUse"
             x1="40.376701"
             x2="40.376701"
             y1="60.116199"
             y2="66.494499"><stop
               offset="0.1628"
               style="stop-color:#FF87A8"
               id="stop18939" /><stop
               offset="0.6897"
               style="stop-color:#FF6492"
               id="stop18941" /><stop
               offset="1"
               style="stop-color:#FF5589"
               id="stop18943" /></linearGradient><path
             d="m 36.69,61.92 c -1.36,0.06 -2.23,1.01 -1.69,2.26 1.15,2.65 3.05,4.34 5.97,4.2 0.04,0 0.08,-0.13 0.12,-0.13 0.04,0 0.08,-0.05 0.12,-0.06 2.92,-0.14 4.66,-1.8 5.55,-4.55 0.42,-1.29 -0.54,-2.18 -1.9,-2.11 z"
             style="fill:url(#SVGID_13_)"
             id="path18946" /></g><path
           d="m 70.49,114.7 c -5.14,-4.24 -8.07,-11.03 -7.64,-17.69 0.44,-6.65 4.23,-13 9.88,-16.54"
           style="fill:none;stroke:#b0b0b0;stroke-width:2.0276;stroke-linecap:round;stroke-linejoin:round;stroke-miterlimit:10"
           id="path18950" /></g><g
         id="Layer_1"
         style="display:none"><g
           style="display:inline"
           id="g19199"><g
             style="opacity:0.6"
             id="g18981"><circle
               cx="64"
               cy="64"
               r="28"
               style="opacity:0.61;fill:none;stroke:#000000;stroke-width:0.2625;stroke-miterlimit:10"
               id="circle18953" /><line
               style="opacity:0.61;fill:none;stroke:#000000;stroke-width:0.25;stroke-miterlimit:10"
               x1="84"
               x2="84"
               y1="0"
               y2="128"
               id="line18955" /><line
               style="opacity:0.61;fill:none;stroke:#000000;stroke-width:0.25;stroke-miterlimit:10"
               x1="44"
               x2="44"
               y1="0"
               y2="128"
               id="line18957" /><line
               style="opacity:0.61;fill:none;stroke:#000000;stroke-width:0.25;stroke-miterlimit:10"
               x1="64"
               x2="64"
               y1="0"
               y2="128"
               id="line18959" /><line
               style="opacity:0.61;fill:none;stroke:#000000;stroke-width:0.25;stroke-miterlimit:10"
               x1="128"
               x2="0"
               y1="64"
               y2="64"
               id="line18961" /><line
               style="opacity:0.61;fill:none;stroke:#000000;stroke-width:0.25;stroke-miterlimit:10"
               x1="128"
               x2="0"
               y1="44"
               y2="44"
               id="line18963" /><line
               style="opacity:0.61;fill:none;stroke:#000000;stroke-width:0.25;stroke-miterlimit:10"
               x1="128"
               x2="0"
               y1="83.75"
               y2="83.75"
               id="line18965" /><line
               style="opacity:0.61;fill:none;stroke:#000000;stroke-width:0.25;stroke-miterlimit:10"
               x1="128"
               x2="0"
               y1="128"
               y2="0"
               id="line18967" /><line
               style="opacity:0.61;fill:none;stroke:#000000;stroke-width:0.25;stroke-miterlimit:10"
               x1="0"
               x2="128"
               y1="128"
               y2="0"
               id="line18969" /><g
               style="opacity:0.61"
               id="g18973"><path
                 d="m 64,4.26 c 32.94,0 59.74,26.8 59.74,59.74 0,32.94 -26.8,59.74 -59.74,59.74 C 31.06,123.74 4.26,96.94 4.26,64 4.26,31.06 31.06,4.26 64,4.26 M 64,4 C 30.86,4 4,30.86 4,64 4,97.14 30.86,124 64,124 97.14,124 124,97.14 124,64 124,30.86 97.14,4 64,4 Z"
                 id="path18971" /></g><path
               d="M 107.97,115.97 H 20.03 c -4.42,0 -8.03,-3.61 -8.03,-8.03 V 20.03 C 12,15.61 15.61,12 20.03,12 h 87.94 c 4.42,0 8.03,3.61 8.03,8.03 v 87.91 c 0,4.42 -3.61,8.03 -8.03,8.03 z"
               style="opacity:0.61;fill:none;stroke:#000000;stroke-width:0.2578;stroke-miterlimit:10"
               id="path18975" /><path
               d="M 100,124 H 28 c -4.4,0 -8,-3.6 -8,-8 V 12 c 0,-4.4 3.6,-8 8,-8 h 72 c 4.4,0 8,3.6 8,8 v 104 c 0,4.4 -3.6,8 -8,8 z"
               style="opacity:0.61;fill:none;stroke:#000000;stroke-width:0.2628;stroke-miterlimit:10"
               id="path18977" /><path
               d="M 113.77,108 H 14.23 C 8.6,108 4,103.4 4,97.77 V 30.28 C 4,24.65 8.6,20.05 14.23,20.05 h 99.54 c 5.63,0 10.23,4.6 10.23,10.23 v 67.48 c 0,5.64 -4.6,10.24 -10.23,10.24 z"
               style="opacity:0.61;fill:none;stroke:#000000;stroke-width:0.2627;stroke-miterlimit:10"
               id="path18979" /></g><g
             id="g19197"><g
               style="opacity:0.2"
               id="g19185"><defs
                 id="defs18984" /><clipPath
                 id="SVGID_14_"><use
                   style="overflow:visible"
                   xlink:href="#SVGID_24_"
                   id="use18986"
                   x="0"
                   y="0"
                   width="100%"
                   height="100%" /></clipPath><g
                 clip-path="url(#SVGID_14_)"
                 id="g19183"><g
                   id="g19083"><line
                     style="fill:none;stroke:#000000;stroke-width:0.25;stroke-miterlimit:10"
                     x1="-28"
                     x2="-28"
                     y1="160"
                     y2="-32"
                     id="line18989" /><line
                     style="fill:none;stroke:#000000;stroke-width:0.25;stroke-miterlimit:10"
                     x1="-24"
                     x2="-24"
                     y1="160"
                     y2="-32"
                     id="line18991" /><line
                     style="fill:none;stroke:#000000;stroke-width:0.25;stroke-miterlimit:10"
                     x1="-20"
                     x2="-20"
                     y1="160"
                     y2="-32"
                     id="line18993" /><line
                     style="fill:none;stroke:#000000;stroke-width:0.25;stroke-miterlimit:10"
                     x1="-16"
                     x2="-16"
                     y1="160"
                     y2="-32"
                     id="line18995" /><line
                     style="fill:none;stroke:#000000;stroke-width:0.25;stroke-miterlimit:10"
                     x1="-12"
                     x2="-12"
                     y1="160"
                     y2="-32"
                     id="line18997" /><line
                     style="fill:none;stroke:#000000;stroke-width:0.25;stroke-miterlimit:10"
                     x1="-8"
                     x2="-8"
                     y1="160"
                     y2="-32"
                     id="line18999" /><line
                     style="fill:none;stroke:#000000;stroke-width:0.25;stroke-miterlimit:10"
                     x1="-4"
                     x2="-4"
                     y1="160"
                     y2="-32"
                     id="line19001" /><line
                     style="fill:none;stroke:#000000;stroke-width:0.25;stroke-miterlimit:10"
                     x1="0"
                     x2="0"
                     y1="160"
                     y2="-32"
                     id="line19003" /><line
                     style="fill:none;stroke:#000000;stroke-width:0.25;stroke-miterlimit:10"
                     x1="4"
                     x2="4"
                     y1="160"
                     y2="-32"
                     id="line19005" /><line
                     style="fill:none;stroke:#000000;stroke-width:0.25;stroke-miterlimit:10"
                     x1="8"
                     x2="8"
                     y1="160"
                     y2="-32"
                     id="line19007" /><line
                     style="fill:none;stroke:#000000;stroke-width:0.25;stroke-miterlimit:10"
                     x1="12"
                     x2="12"
                     y1="160"
                     y2="-32"
                     id="line19009" /><line
                     style="fill:none;stroke:#000000;stroke-width:0.25;stroke-miterlimit:10"
                     x1="16"
                     x2="16"
                     y1="160"
                     y2="-32"
                     id="line19011" /><line
                     style="fill:none;stroke:#000000;stroke-width:0.25;stroke-miterlimit:10"
                     x1="20"
                     x2="20"
                     y1="160"
                     y2="-32"
                     id="line19013" /><line
                     style="fill:none;stroke:#000000;stroke-width:0.25;stroke-miterlimit:10"
                     x1="24"
                     x2="24"
                     y1="160"
                     y2="-32"
                     id="line19015" /><line
                     style="fill:none;stroke:#000000;stroke-width:0.25;stroke-miterlimit:10"
                     x1="28"
                     x2="28"
                     y1="160"
                     y2="-32"
                     id="line19017" /><line
                     style="fill:none;stroke:#000000;stroke-width:0.25;stroke-miterlimit:10"
                     x1="32"
                     x2="32"
                     y1="160"
                     y2="-32"
                     id="line19019" /><line
                     style="fill:none;stroke:#000000;stroke-width:0.25;stroke-miterlimit:10"
                     x1="36"
                     x2="36"
                     y1="160"
                     y2="-32"
                     id="line19021" /><line
                     style="fill:none;stroke:#000000;stroke-width:0.25;stroke-miterlimit:10"
                     x1="40"
                     x2="40"
                     y1="160"
                     y2="-32"
                     id="line19023" /><line
                     style="fill:none;stroke:#000000;stroke-width:0.25;stroke-miterlimit:10"
                     x1="44"
                     x2="44"
                     y1="160"
                     y2="-32"
                     id="line19025" /><line
                     style="fill:none;stroke:#000000;stroke-width:0.25;stroke-miterlimit:10"
                     x1="48"
                     x2="48"
                     y1="160"
                     y2="-32"
                     id="line19027" /><line
                     style="fill:none;stroke:#000000;stroke-width:0.25;stroke-miterlimit:10"
                     x1="52"
                     x2="52"
                     y1="160"
                     y2="-32"
                     id="line19029" /><line
                     style="fill:none;stroke:#000000;stroke-width:0.25;stroke-miterlimit:10"
                     x1="56"
                     x2="56"
                     y1="160"
                     y2="-32"
                     id="line19031" /><line
                     style="fill:none;stroke:#000000;stroke-width:0.25;stroke-miterlimit:10"
                     x1="60"
                     x2="60"
                     y1="160"
                     y2="-32"
                     id="line19033" /><line
                     style="fill:none;stroke:#000000;stroke-width:0.25;stroke-miterlimit:10"
                     x1="64"
                     x2="64"
                     y1="160"
                     y2="-32"
                     id="line19035" /><line
                     style="fill:none;stroke:#000000;stroke-width:0.25;stroke-miterlimit:10"
                     x1="68"
                     x2="68"
                     y1="160"
                     y2="-32"
                     id="line19037" /><line
                     style="fill:none;stroke:#000000;stroke-width:0.25;stroke-miterlimit:10"
                     x1="72"
                     x2="72"
                     y1="160"
                     y2="-32"
                     id="line19039" /><line
                     style="fill:none;stroke:#000000;stroke-width:0.25;stroke-miterlimit:10"
                     x1="76"
                     x2="76"
                     y1="160"
                     y2="-32"
                     id="line19041" /><line
                     style="fill:none;stroke:#000000;stroke-width:0.25;stroke-miterlimit:10"
                     x1="80"
                     x2="80"
                     y1="160"
                     y2="-32"
                     id="line19043" /><line
                     style="fill:none;stroke:#000000;stroke-width:0.25;stroke-miterlimit:10"
                     x1="84"
                     x2="84"
                     y1="160"
                     y2="-32"
                     id="line19045" /><line
                     style="fill:none;stroke:#000000;stroke-width:0.25;stroke-miterlimit:10"
                     x1="88"
                     x2="88"
                     y1="160"
                     y2="-32"
                     id="line19047" /><line
                     style="fill:none;stroke:#000000;stroke-width:0.25;stroke-miterlimit:10"
                     x1="92"
                     x2="92"
                     y1="160"
                     y2="-32"
                     id="line19049" /><line
                     style="fill:none;stroke:#000000;stroke-width:0.25;stroke-miterlimit:10"
                     x1="96"
                     x2="96"
                     y1="160"
                     y2="-32"
                     id="line19051" /><line
                     style="fill:none;stroke:#000000;stroke-width:0.25;stroke-miterlimit:10"
                     x1="100"
                     x2="100"
                     y1="160"
                     y2="-32"
                     id="line19053" /><line
                     style="fill:none;stroke:#000000;stroke-width:0.25;stroke-miterlimit:10"
                     x1="104"
                     x2="104"
                     y1="160"
                     y2="-32"
                     id="line19055" /><line
                     style="fill:none;stroke:#000000;stroke-width:0.25;stroke-miterlimit:10"
                     x1="108"
                     x2="108"
                     y1="160"
                     y2="-32"
                     id="line19057" /><line
                     style="fill:none;stroke:#000000;stroke-width:0.25;stroke-miterlimit:10"
                     x1="112"
                     x2="112"
                     y1="160"
                     y2="-32"
                     id="line19059" /><line
                     style="fill:none;stroke:#000000;stroke-width:0.25;stroke-miterlimit:10"
                     x1="116"
                     x2="116"
                     y1="160"
                     y2="-32"
                     id="line19061" /><line
                     style="fill:none;stroke:#000000;stroke-width:0.25;stroke-miterlimit:10"
                     x1="120"
                     x2="120"
                     y1="160"
                     y2="-32"
                     id="line19063" /><line
                     style="fill:none;stroke:#000000;stroke-width:0.25;stroke-miterlimit:10"
                     x1="124"
                     x2="124"
                     y1="160"
                     y2="-32"
                     id="line19065" /><line
                     style="fill:none;stroke:#000000;stroke-width:0.25;stroke-miterlimit:10"
                     x1="128"
                     x2="128"
                     y1="160"
                     y2="-32"
                     id="line19067" /><line
                     style="fill:none;stroke:#000000;stroke-width:0.25;stroke-miterlimit:10"
                     x1="132"
                     x2="132"
                     y1="160"
                     y2="-32"
                     id="line19069" /><line
                     style="fill:none;stroke:#000000;stroke-width:0.25;stroke-miterlimit:10"
                     x1="136"
                     x2="136"
                     y1="160"
                     y2="-32"
                     id="line19071" /><line
                     style="fill:none;stroke:#000000;stroke-width:0.25;stroke-miterlimit:10"
                     x1="137"
                     x2="137"
                     y1="166.05"
                     y2="-25.950001"
                     id="line19073" /><line
                     style="fill:none;stroke:#000000;stroke-width:0.25;stroke-miterlimit:10"
                     x1="144"
                     x2="144"
                     y1="160"
                     y2="-32"
                     id="line19075" /><line
                     style="fill:none;stroke:#000000;stroke-width:0.25;stroke-miterlimit:10"
                     x1="148"
                     x2="148"
                     y1="160"
                     y2="-32"
                     id="line19077" /><line
                     style="fill:none;stroke:#000000;stroke-width:0.25;stroke-miterlimit:10"
                     x1="152"
                     x2="152"
                     y1="160"
                     y2="-32"
                     id="line19079" /><line
                     style="fill:none;stroke:#000000;stroke-width:0.25;stroke-miterlimit:10"
                     x1="156"
                     x2="156"
                     y1="160"
                     y2="-32"
                     id="line19081" /></g><g
                   id="g19179"><line
                     style="fill:none;stroke:#000000;stroke-width:0.25;stroke-miterlimit:10"
                     x1="-32"
                     x2="160"
                     y1="-28"
                     y2="-28"
                     id="line19085" /><line
                     style="fill:none;stroke:#000000;stroke-width:0.25;stroke-miterlimit:10"
                     x1="-32"
                     x2="160"
                     y1="-24"
                     y2="-24"
                     id="line19087" /><line
                     style="fill:none;stroke:#000000;stroke-width:0.25;stroke-miterlimit:10"
                     x1="-32"
                     x2="160"
                     y1="-20"
                     y2="-20"
                     id="line19089" /><line
                     style="fill:none;stroke:#000000;stroke-width:0.25;stroke-miterlimit:10"
                     x1="-32"
                     x2="160"
                     y1="-16"
                     y2="-16"
                     id="line19091" /><line
                     style="fill:none;stroke:#000000;stroke-width:0.25;stroke-miterlimit:10"
                     x1="-32"
                     x2="160"
                     y1="-12"
                     y2="-12"
                     id="line19093" /><line
                     style="fill:none;stroke:#000000;stroke-width:0.25;stroke-miterlimit:10"
                     x1="-32"
                     x2="160"
                     y1="-8"
                     y2="-8"
                     id="line19095" /><line
                     style="fill:none;stroke:#000000;stroke-width:0.25;stroke-miterlimit:10"
                     x1="-32"
                     x2="160"
                     y1="-4"
                     y2="-4"
                     id="line19097" /><line
                     style="fill:none;stroke:#000000;stroke-width:0.25;stroke-miterlimit:10"
                     x1="-32"
                     x2="160"
                     y1="0"
                     y2="0"
                     id="line19099" /><line
                     style="fill:none;stroke:#000000;stroke-width:0.25;stroke-miterlimit:10"
                     x1="-32"
                     x2="160"
                     y1="4"
                     y2="4"
                     id="line19101" /><line
                     style="fill:none;stroke:#000000;stroke-width:0.25;stroke-miterlimit:10"
                     x1="-32"
                     x2="160"
                     y1="8"
                     y2="8"
                     id="line19103" /><line
                     style="fill:none;stroke:#000000;stroke-width:0.25;stroke-miterlimit:10"
                     x1="-32"
                     x2="160"
                     y1="12"
                     y2="12"
                     id="line19105" /><line
                     style="fill:none;stroke:#000000;stroke-width:0.25;stroke-miterlimit:10"
                     x1="-32"
                     x2="160"
                     y1="16"
                     y2="16"
                     id="line19107" /><line
                     style="fill:none;stroke:#000000;stroke-width:0.25;stroke-miterlimit:10"
                     x1="-32"
                     x2="160"
                     y1="20"
                     y2="20"
                     id="line19109" /><line
                     style="fill:none;stroke:#000000;stroke-width:0.25;stroke-miterlimit:10"
                     x1="-32"
                     x2="160"
                     y1="24"
                     y2="24"
                     id="line19111" /><line
                     style="fill:none;stroke:#000000;stroke-width:0.25;stroke-miterlimit:10"
                     x1="-32"
                     x2="160"
                     y1="28"
                     y2="28"
                     id="line19113" /><line
                     style="fill:none;stroke:#000000;stroke-width:0.25;stroke-miterlimit:10"
                     x1="-32"
                     x2="160"
                     y1="32"
                     y2="32"
                     id="line19115" /><line
                     style="fill:none;stroke:#000000;stroke-width:0.25;stroke-miterlimit:10"
                     x1="-32"
                     x2="160"
                     y1="36"
                     y2="36"
                     id="line19117" /><line
                     style="fill:none;stroke:#000000;stroke-width:0.25;stroke-miterlimit:10"
                     x1="-32"
                     x2="160"
                     y1="40"
                     y2="40"
                     id="line19119" /><line
                     style="fill:none;stroke:#000000;stroke-width:0.25;stroke-miterlimit:10"
                     x1="-32"
                     x2="160"
                     y1="44"
                     y2="44"
                     id="line19121" /><line
                     style="fill:none;stroke:#000000;stroke-width:0.25;stroke-miterlimit:10"
                     x1="-32"
                     x2="160"
                     y1="48"
                     y2="48"
                     id="line19123" /><line
                     style="fill:none;stroke:#000000;stroke-width:0.25;stroke-miterlimit:10"
                     x1="-32"
                     x2="160"
                     y1="52"
                     y2="52"
                     id="line19125" /><line
                     style="fill:none;stroke:#000000;stroke-width:0.25;stroke-miterlimit:10"
                     x1="-32"
                     x2="160"
                     y1="56"
                     y2="56"
                     id="line19127" /><line
                     style="fill:none;stroke:#000000;stroke-width:0.25;stroke-miterlimit:10"
                     x1="-32"
                     x2="160"
                     y1="60"
                     y2="60"
                     id="line19129" /><line
                     style="fill:none;stroke:#000000;stroke-width:0.25;stroke-miterlimit:10"
                     x1="-32"
                     x2="160"
                     y1="64"
                     y2="64"
                     id="line19131" /><line
                     style="fill:none;stroke:#000000;stroke-width:0.25;stroke-miterlimit:10"
                     x1="-32"
                     x2="160"
                     y1="68"
                     y2="68"
                     id="line19133" /><line
                     style="fill:none;stroke:#000000;stroke-width:0.25;stroke-miterlimit:10"
                     x1="-32"
                     x2="160"
                     y1="72"
                     y2="72"
                     id="line19135" /><line
                     style="fill:none;stroke:#000000;stroke-width:0.25;stroke-miterlimit:10"
                     x1="-32"
                     x2="160"
                     y1="76"
                     y2="76"
                     id="line19137" /><line
                     style="fill:none;stroke:#000000;stroke-width:0.25;stroke-miterlimit:10"
                     x1="-32"
                     x2="160"
                     y1="80"
                     y2="80"
                     id="line19139" /><line
                     style="fill:none;stroke:#000000;stroke-width:0.25;stroke-miterlimit:10"
                     x1="-32"
                     x2="160"
                     y1="84"
                     y2="84"
                     id="line19141" /><line
                     style="fill:none;stroke:#000000;stroke-width:0.25;stroke-miterlimit:10"
                     x1="-32"
                     x2="160"
                     y1="88"
                     y2="88"
                     id="line19143" /><line
                     style="fill:none;stroke:#000000;stroke-width:0.25;stroke-miterlimit:10"
                     x1="-32"
                     x2="160"
                     y1="92"
                     y2="92"
                     id="line19145" /><line
                     style="fill:none;stroke:#000000;stroke-width:0.25;stroke-miterlimit:10"
                     x1="-32"
                     x2="160"
                     y1="96"
                     y2="96"
                     id="line19147" /><line
                     style="fill:none;stroke:#000000;stroke-width:0.25;stroke-miterlimit:10"
                     x1="-32"
                     x2="160"
                     y1="100"
                     y2="100"
                     id="line19149" /><line
                     style="fill:none;stroke:#000000;stroke-width:0.25;stroke-miterlimit:10"
                     x1="-32"
                     x2="160"
                     y1="104"
                     y2="104"
                     id="line19151" /><line
                     style="fill:none;stroke:#000000;stroke-width:0.25;stroke-miterlimit:10"
                     x1="-32"
                     x2="160"
                     y1="108"
                     y2="108"
                     id="line19153" /><line
                     style="fill:none;stroke:#000000;stroke-width:0.25;stroke-miterlimit:10"
                     x1="-32"
                     x2="160"
                     y1="112"
                     y2="112"
                     id="line19155" /><line
                     style="fill:none;stroke:#000000;stroke-width:0.25;stroke-miterlimit:10"
                     x1="-32"
                     x2="160"
                     y1="116"
                     y2="116"
                     id="line19157" /><line
                     style="fill:none;stroke:#000000;stroke-width:0.25;stroke-miterlimit:10"
                     x1="-32"
                     x2="160"
                     y1="120"
                     y2="120"
                     id="line19159" /><line
                     style="fill:none;stroke:#000000;stroke-width:0.25;stroke-miterlimit:10"
                     x1="-32"
                     x2="160"
                     y1="124"
                     y2="124"
                     id="line19161" /><line
                     style="fill:none;stroke:#000000;stroke-width:0.25;stroke-miterlimit:10"
                     x1="-32"
                     x2="160"
                     y1="128"
                     y2="128"
                     id="line19163" /><line
                     style="fill:none;stroke:#000000;stroke-width:0.25;stroke-miterlimit:10"
                     x1="-32"
                     x2="160"
                     y1="132"
                     y2="132"
                     id="line19165" /><line
                     style="fill:none;stroke:#000000;stroke-width:0.25;stroke-miterlimit:10"
                     x1="-32"
                     x2="160"
                     y1="136"
                     y2="136"
                     id="line19167" /><line
                     style="fill:none;stroke:#000000;stroke-width:0.25;stroke-miterlimit:10"
                     x1="-32"
                     x2="160"
                     y1="140"
                     y2="140"
                     id="line19169" /><line
                     style="fill:none;stroke:#000000;stroke-width:0.25;stroke-miterlimit:10"
                     x1="-32"
                     x2="160"
                     y1="144"
                     y2="144"
                     id="line19171" /><line
                     style="fill:none;stroke:#000000;stroke-width:0.25;stroke-miterlimit:10"
                     x1="-32"
                     x2="160"
                     y1="148"
                     y2="148"
                     id="line19173" /><line
                     style="fill:none;stroke:#000000;stroke-width:0.25;stroke-miterlimit:10"
                     x1="-32"
                     x2="160"
                     y1="152"
                     y2="152"
                     id="line19175" /><line
                     style="fill:none;stroke:#000000;stroke-width:0.25;stroke-miterlimit:10"
                     x1="-32"
                     x2="160"
                     y1="156"
                     y2="156"
                     id="line19177" /></g><path
                   d="m 159.75,-31.75 v 191.5 h -191.5 v -191.5 h 191.5 M 160,-32 H -32 v 192 h 192 z"
                   id="path19181" /></g></g><g
               id="g19195"><rect
                 height="128"
                 style="opacity:0.3;fill:#f44336"
                 width="4"
                 x="0"
                 y="0"
                 id="rect19187" /><rect
                 height="128"
                 style="opacity:0.3;fill:#f44336"
                 width="4"
                 x="124"
                 y="0"
                 id="rect19189" /><rect
                 height="120"
                 style="opacity:0.3;fill:#f44336"
                 transform="rotate(90,64,2)"
                 width="4"
                 x="62"
                 y="-58"
                 id="rect19191" /><rect
                 height="120"
                 style="opacity:0.3;fill:#f44336"
                 transform="rotate(90,64,126)"
                 width="4"
                 x="62"
                 y="66"
                 id="rect19193" /></g></g></g></g></g><g
       id="g19801"
       transform="translate(-166.87861,-286.58777)"><g
         id="g19805"
         transform="translate(-0.6138611,-3.7060548)"><path
           style="fill:#fbd242;fill-opacity:1;stroke:#000000;stroke-width:2.25;stroke-linecap:butt;stroke-linejoin:round;stroke-miterlimit:4;stroke-dasharray:none;stroke-opacity:1"
           d="m 202.50001,283.75 c 9.72272,-9.72272 34.77951,10e-6 34.77951,10e-6 v -15 c 0,0 15,11.89339 15,22.49999 0,10.6066 -15,22.50001 -15,22.50001 v -15 c 0,0 -27.27951,7.5 -34.77951,-2e-5 -3.53553,-3.53553 -3.53553,-11.46446 0,-14.99999 z"
           id="path19776" /><path
           style="fill:none;stroke:#ffffff;stroke-width:1.899;stroke-linecap:round;stroke-linejoin:round;stroke-miterlimit:4;stroke-dasharray:none;stroke-opacity:0.438181"
           d="m 248.55748,291.25505 c -1.66037,6.37509 -3.36345,9.35724 -7.70721,13.65245 l -0.0401,-10.50386 c 0,0 -34.44078,9.46617 -36.80196,-0.96969"
           id="path19776-2" /></g></g><g
       id="g28233"><path
         d="m 127.48232,-84.775299 c -0.005,-0.0012 -0.01,-0.0039 -0.0145,-0.0065 v 0 l 0.0145,0.0065"
         style="fill:#efd8c3;fill-opacity:1;fill-rule:nonzero;stroke:none;stroke-width:0.0175381"
         id="path22845" /><path
         d="m 236.40068,-18.211732 0.008,0.0024 -0.008,-0.0024"
         style="fill:#ce7f42;fill-opacity:1;fill-rule:nonzero;stroke:none;stroke-width:0.0192556"
         id="path22875" /><path
         d="m 231.36591,-56.53474 -0.39517,-0.230028 v 0 l 0.39517,0.230028 v 0"
         style="fill:#4c1c0b;fill-opacity:1;fill-rule:nonzero;stroke:none;stroke-width:0.0177908"
         id="path22991" /><path
         d="m 230.96836,-56.76669 -3.27099,-1.901577 3.27099,1.901577 v 0"
         style="fill:#361307;fill-opacity:1;fill-rule:nonzero;stroke:none;stroke-width:0.0177626"
         id="path22995" /><path
         d="m 150.94269,-55.746605 -0.23962,0.404358 c -2.37931,-1.234617 -4.73348,-2.380942 -6.7674,-3.266137 -5.18064,-2.252468 -0.55304,1.225701 5.74367,4.99371 l -0.45151,0.761943 c -16.57178,-8.070991 -14.30951,-11.186829 1.71486,-2.893874"
         style="fill:#ce7f42;fill-opacity:1;fill-rule:nonzero;stroke:none;stroke-width:0.0175381"
         id="path23059" /><path
         d="m 155.2933,-63.088413 c -3.92929,-1.849352 -8.0183,-3.697529 -11.23751,-5.172986 l 1.00552,-0.492769 c 3.11969,1.426674 6.96539,3.169406 10.67546,4.917391 l -0.44347,0.748364"
         style="fill:#ce7f42;fill-opacity:1;fill-rule:nonzero;stroke:none;stroke-width:0.0175381"
         id="path23065" /><path
         d="m 129.927,-79.016996 2.59826,1.339896 c 2.43895,2.458468 4.53675,4.904366 6.23566,5.911106 0.68046,0.403232 2.40329,1.218244 4.70465,2.278233 l 0.26214,1.074759 c -2.63122,-1.208574 -4.63206,-2.149595 -5.40758,-2.609155 -2.38541,-1.413548 -5.25264,-5.130847 -8.39313,-7.994839"
         style="fill:#ce7f42;fill-opacity:1;fill-rule:nonzero;stroke:none;stroke-width:0.0175381"
         id="path23067" /><path
         d="M 223.43618,0.96382121 C 207.74617,-2.0630326 203.8107,-5.5509217 203.27225,-5.411192 c -4.42167,0.6823216 -5.62904,0.8127325 -6.72521,0.599413 -0.66715,-0.1303026 -1.76932,-0.3410922 -2.1967,-0.594348 -0.0267,-0.015828 -2.23719,-1.9534682 -14.53289,-8.54244 -0.36694,-0.199173 -1.12594,0.388888 -1.79026,1.026517 -0.85499,0.818554 -4.0473,0.286564 -4.0473,0.286564 0,0 -46.41976,-28.44921 -46.41864,-28.428249 0,0 -6.0929,-15.35489 -6.06321,-15.439252 l 0.0823,-1.341654 c 0.135,-0.399106 1.10378,-0.960526 1.46104,-0.74882 l 7.05839,4.182667 -11.01505,-9.960206 c -0.33086,-0.332758 0.34964,-1.405385 0.78237,-1.585206 2.40013,-0.995576 8.68284,-4.057155 9.46706,-8.417764 0.74099,-4.123215 0.30741,-5.163088 0.49817,-5.753363 0.1266,-0.395965 4.16921,-4.768518 7.3322,-5.65445 0.14455,-0.04066 3.77976,0.965815 3.77976,0.965815 -0.14225,-0.09873 -1.60059,-1.07502 -1.44245,-1.509365 0.31205,-0.842539 1.31239,-2.12715 1.62483,-2.266142 1.25489,-0.556993 2.02788,-2.706486 3.76531,-3.12235 0.36866,-0.08921 4.05646,2.15318 4.05646,2.15318 0.004,-0.06459 -0.23547,-0.451493 -0.17685,-0.565632 0.39865,-0.756486 1.87795,-2.407806 2.3463,-2.505384 l 3.71926,-0.768336 c 0.0289,-0.0032 0.0579,-0.0063 0.0878,-0.01113 l 10.87858,-0.76808 c 0.0851,-0.0066 0.16981,0.0027 0.2506,0.03008 l 9.38201,3.131599 c 0.0511,0.02418 0.10295,0.05085 0.15403,0.07503 46.17388,30.554215 50.41179,33.436575 54.43755,36.140215 0,0 1.7342,2.356918 -0.37653,4.3658 l 3.49192,4.468597 c 0.22908,0.294776 0.16798,0.721434 -0.1341,0.941907 -4.3345,3.157913 -3.17823,2.059318 -5.09277,4.555518 -0.189,0.242816 -0.18804,0.583771 0.004,0.823839 0,0 8.82037,11.110012 8.83781,11.407943 0.10751,1.961629 -1.508,3.595391 -3.47268,3.511628 -1.14775,-0.05013 -2.16766,-0.140895 -2.31813,-0.221941 l 3.93724,2.479979 c 0.26633,0.186246 0.35166,0.544708 0.20195,0.839228 -4.95345,9.68378 -4.6853,9.12087 -4.71787,9.244352 -0.18334,0.682421 -1.99541,5.8834321 -0.90947,7.5871069 0.94411,1.4786442 -5.21162,5.9893931 -6.04238,5.76214128"
         style="fill:#793f12;fill-opacity:1;fill-rule:nonzero;stroke:none;stroke-width:0.0194054"
         id="path23101" /><path
         d="m 127.53407,-40.360052 -1.6269,-3.75892 c -0.0531,-0.121146 -0.14385,-0.223986 -0.25611,-0.290507 l -5.22654,-3.097152 c -0.14363,-0.08511 -0.2467,-0.223587 -0.28744,-0.384457 l -1.32162,-5.166162 c -0.0521,-0.201945 -8.9e-4,-0.416301 0.13835,-0.572232 l 2.09307,-2.353964 c 0.0585,-0.06104 0.10065,-0.135972 0.12864,-0.217085 l 0.54916,-1.641905 c 0.12673,-0.379483 0.57209,-0.543837 0.91711,-0.339381 l 6.77833,4.016711 -10.0679,-10.0758 c -0.31685,-0.318247 -0.21011,-0.856344 0.20477,-1.026487 2.29696,-0.938319 8.30386,-3.76565 9.03251,-7.908683 0.73845,-4.204364 1.49104,-6.251677 1.73936,-6.856665 0.0524,-0.126002 0.14412,-0.232674 0.26216,-0.301242 l 6.52557,-3.83286 c 0.12545,-0.07243 0.27128,-0.100214 0.41627,-0.07764 l 2.95468,0.460526 c 0.6602,0.101698 1.00476,-0.758309 0.45599,-1.138372 l -1.02999,-0.712287 c -0.40383,-0.282129 -0.34397,-0.89507 0.10578,-1.093179 1.19724,-0.526031 3.05803,-1.539466 3.77279,-3.001603 0.16021,-0.323063 0.56745,-0.434386 0.87946,-0.249496 l 5.66236,3.355411 c 0.66034,0.391302 1.31231,-0.516953 0.72977,-1.016952 l -1.99346,-1.717504 c -0.39507,-0.342073 -0.22545,-0.989675 0.2885,-1.092863 l 3.55429,-0.713187 c 0.028,-0.0059 0.0551,-0.01018 0.083,-0.01214 l 10.41374,-0.676518 c 0.0803,-0.0075 0.16412,0.0054 0.2407,0.03044 l 8.99797,3.026325 c 0.0516,0.01831 0.10046,0.04125 0.14493,0.07161 l 54.85217,36.110686 c 0.25699,0.168577 0.35507,0.499928 0.22924,0.780021 l -0.50724,1.134538 c -0.1424,0.319345 -0.51782,0.459784 -0.83541,0.314417 l -1.01823,-0.464871 c -0.60039,-0.274143 -1.16321,0.442255 -0.75654,0.960495 l 3.36214,4.267256 c 0.22102,0.281978 0.16405,0.690533 -0.12695,0.899293 l -3.31088,2.380208 c -0.0485,0.03663 -0.092,0.0762 -0.12727,0.124437 l -1.41132,1.805743 c -0.18054,0.22938 -0.17564,0.552361 0.004,0.779275 l 9.14584,11.39279 c 0.13324,0.166617 0.17116,0.384929 0.10786,0.58586 l -0.6756,2.111229 c -0.11893,0.373847 -0.54778,0.547982 -0.89345,0.363442 l -14.73172,-7.808307 13.82278,9.748697 c 0.25491,0.179608 0.34089,0.520081 0.19824,0.798454 l -4.42615,8.658725 c -0.0207,0.03861 -0.0356,0.07885 -0.048,0.122358 -0.17325,0.65371 -1.58632,6.1135837 -0.5406,7.7403423 0.91079,1.4102936 -0.47547,5.01062544 -1.02087,6.2998837 -0.11549,0.27394668 -0.40719,0.42742075 -0.69752,0.37158273 L 208.71561,-2.0815596 c -0.0703,-0.013108 -0.13764,-0.038738 -0.20038,-0.075913 l -8.3169,-4.9284436 c -0.14363,-0.085108 -0.31624,-0.1099974 -0.47691,-0.068474 l -4.74386,1.2149877 c -0.15462,0.038857 -0.31645,0.018351 -0.45709,-0.056736 l -17.29795,-9.4023905 c -0.70366,-0.382179 -1.31617,0.628867 -0.65173,1.073458 l 0.008,0.0049 c 0.44542,0.29852 0.33502,0.985455 -0.1845,1.128164 l -1.8731,0.514756 c -0.16496,0.045 -0.34099,0.02211 -0.48703,-0.06644 -3.38786,-2.021855 -43.07476,-25.710867 -46.20529,-27.304989 -0.13249,-0.06625 -0.23653,-0.176747 -0.29506,-0.311356"
         style="fill:#4c2600;fill-opacity:1;fill-rule:nonzero;stroke:none;stroke-width:0.0191892"
         id="path23105" /><path
         d="m 120.21663,-55.048165 -0.62418,0.702431 v 0 l 0.62418,-0.702431 v 0"
         style="fill:#cb7839;fill-opacity:1;fill-rule:nonzero;stroke:none;stroke-width:0.0175381"
         id="path23107" /><path
         d="m 119.09232,-53.783845 -0.13842,0.154456 c -0.13931,0.155966 -0.19078,0.370102 -0.13914,0.571945 l 0.27539,1.076491 v 0 l -0.27539,-1.076491 c -0.0516,-0.201843 -1.7e-4,-0.415979 0.13914,-0.571945 l 0.13842,-0.154456 v 0"
         style="fill:#cf7a36;fill-opacity:1;fill-rule:nonzero;stroke:none;stroke-width:0.0175381"
         id="path23109" /><path
         d="m 120.31917,-55.162722 v 0 l -0.10254,0.114557 v 0 l 0.10254,-0.114557"
         style="fill:#c8773b;fill-opacity:1;fill-rule:nonzero;stroke:none;stroke-width:0.0175381"
         id="path23111" /><path
         d="m 210.08228,-1.815728 -1.36608,-0.2651715 1.36608,0.2651715 v 0"
         style="fill:#e4b795;fill-opacity:1;fill-rule:nonzero;stroke:none;stroke-width:0.0183789"
         id="path23115" /><path
         d="m 199.97733,-7.165562 c -0.0846,-0.013332 -0.17107,-0.00952 -0.25558,0.011707 l -1.35107,0.3449902 1.35107,-0.3449902 c 0.0845,-0.02123 0.17101,-0.025039 0.25558,-0.011707"
         style="fill:#a05625;fill-opacity:1;fill-rule:nonzero;stroke:none;stroke-width:0.0176783"
         id="path23119" /><path
         d="m 199.01345,-9.6490243 c -3.66031,-2.1690327 -7.41234,-3.9561717 -11.24811,-5.2342767 -9.23795,-2.620291 -15.06882,-4.587378 -22.53175,-9.00977 -4.71493,-2.793977 -10.08272,-6.570012 -17.36985,-12.10744 -5.90079,-4.415969 -4.38306,-3.498217 -15.85447,-11.845451 -2.26603,-1.634204 -5.10862,-3.463514 -8.34361,-5.380508 -1.07517,-0.637125 -2.19392,-1.283624 -3.34573,-1.935615 l -0.10371,0.113724 -0.62371,0.702843 -0.4997,0.562057 -0.13851,0.154419 c -0.13944,0.155999 -0.19138,0.369832 -0.13994,0.571436 l 0.27618,1.076946 c 0.6752,0.381953 1.34061,0.766007 1.99361,1.152966 2.40806,1.426971 4.65012,2.896141 6.6307,4.391959 11.78185,8.537176 20.58319,16.260112 30.73088,22.27344 0.0648,0.03841 0.12965,0.07683 0.19532,0.113821 8.63608,5.103265 14.30708,6.684005 23.01503,10.133809 3.95582,1.583822 7.09937,2.95933 9.86951,4.6008615 1.56848,0.9294513 3.01434,1.9432603 4.42042,3.1251308 l 2.42482,-0.6201893 1.34997,-0.3457556 c 0.085,-0.020954 0.17237,-0.024111 0.25648,-0.011017 0.076,0.012349 0.15204,0.039041 0.22161,0.080266 l 8.31674,4.9283435 c 0.0633,0.037477 0.12951,0.062647 0.20057,0.076126 v 0 l 1.36608,0.2651715 c -3.5823,-2.9279898 -7.2757,-5.5855597 -11.06883,-7.8332963"
         style="fill:#6e401c;fill-opacity:1;fill-rule:nonzero;stroke:none;stroke-width:0.0183789"
         id="path23123" /><path
         d="m 224.68235,-42.341918 c -0.0495,0.03588 -0.0926,0.07557 -0.12947,0.123087 0.0359,-0.0459 0.0799,-0.08721 0.12947,-0.123087 m -82.00606,-45.99796 c -0.84004,0.731491 -1.88706,1.27293 -2.65737,1.611562 -0.12735,0.05715 -0.22551,0.145746 -0.28892,0.252753 0.0634,-0.107007 0.16157,-0.1956 0.28892,-0.252753 0.77031,-0.338632 1.81894,-0.879117 2.65737,-1.611562 v 0 m 80.42089,47.994206 c -0.13149,0.2219 -0.11543,0.506668 0.0497,0.712348 l 8.92491,11.117281 v 0 l -8.92491,-11.117281 c -0.16511,-0.20568 -0.18117,-0.490448 -0.0497,-0.712348"
         style="fill:#a05625;fill-opacity:1;fill-rule:nonzero;stroke:none;stroke-width:0.0187044"
         id="path23127" /><path
         d="m 205.81233,-55.436127 c -8.97574,-5.318854 -19.35968,-7.876082 -29.39719,-12.639625 -2.23683,-1.04634 -5.92877,-3.111704 -10.47296,-5.804505 -6.58135,-3.899985 -14.95038,-9.116301 -23.26589,-14.459621 -0.83843,0.732445 -1.88706,1.27293 -2.65737,1.611562 -0.12735,0.05715 -0.22551,0.145746 -0.28892,0.252753 -0.15829,0.267116 -0.10486,0.639253 0.1826,0.840254 l 1.03027,0.712273 c 0.30914,0.215797 0.3348,0.579746 0.18014,0.840747 -0.11815,0.203065 -0.34669,0.342891 -0.63541,0.298117 v 0 l -1.17803,-0.184098 c 2.26493,1.835475 4.51471,3.80656 6.72432,5.915162 4.69631,4.340311 13.3298,10.067953 23.9903,16.385165 17.99976,10.666316 41.76762,23.005702 62.04758,33.1519 l -8.92491,-11.117282 c -0.16511,-0.20568 -0.18117,-0.490447 -0.0497,-0.712347 0.0143,-0.02414 0.0293,-0.04571 0.0459,-0.06649 l 1.40977,-1.806666 v 0 c 0.0369,-0.04751 0.0799,-0.08721 0.12947,-0.123087 v 0 l 0.0427,-0.03167 c -1.32177,-0.693677 -2.59191,-1.39742 -3.80036,-2.113529 -2.2013,-1.304445 -4.19128,-2.642605 -5.89839,-4.006856 l -0.002,-9.57e-4 0.002,9.57e-4 c -0.015,-0.015 -3.42489,-3.059004 -6.33073,-5.097074 l -2.25511,-1.466788 c -0.20737,-0.127023 -0.41731,-0.253385 -0.62811,-0.378299 m -22.23239,-3.358495 c -3.95686,-2.344758 -6.63238,-4.397239 -5.35858,-5.093893 2.31369,-1.262753 20.45408,8.025191 31.9111,14.814407 6.17585,3.659693 10.41341,6.594758 9.17197,6.75617 -3.54151,0.461902 -17.45159,-7.140866 -17.45159,-7.140866 0,0 -11.19111,-5.139282 -18.2729,-9.335818"
         style="fill:#4f2700;fill-opacity:1;fill-rule:nonzero;stroke:none;stroke-width:0.0187044"
         id="path23131" /><path
         d="m 127.71411,-46.436335 c 11.85748,8.592178 20.69481,16.356895 30.92669,22.387497 8.63658,5.103604 14.30713,6.684153 23.01467,10.133675 6.19371,2.479728 10.39588,4.4500041 14.29087,7.726448 l -0.96925,0.249238 c -0.15379,0.039342 -0.31662,0.018276 -0.45599,-0.056157 l -17.29914,-9.403078 c -0.70321,-0.382054 -1.31488,0.629511 -0.65073,1.07404 l 0.008,0.0045 c 0.44347,0.297452 0.33529,0.975402 -0.17311,1.124665 -2.78949,-0.99656 -5.76991,-2.094039 -8.98298,-3.490425 -5.99004,-3.56997 -14.94218,-8.901342 -22.8395,-13.577071 -7.87974,-5.857894 -14.05632,-11.473054 -24.49044,-17.798819 l -1.0026,-3.919101 c 3.16496,1.783754 6.10594,3.642726 8.62396,5.544618"
         style="fill:#6e401c;fill-opacity:1;fill-rule:nonzero;stroke:none;stroke-width:0.0175381"
         id="path23133" /><path
         d="m 148.39688,-36.659071 c 6.10726,4.618066 14.01532,10.559829 21.15244,14.104146 l 2.53055,1.242753 2.58213,1.126647 c 10.56676,4.616348 19.21622,3.220383 37.52586,18.7755027 l -2.10582,-0.406073 c -7.03772,-5.7481992 -14.5027,-10.4632337 -22.31719,-13.0677387 -15.07407,-4.27626 -21.08043,-6.814344 -39.90201,-21.117199 -5.90021,-4.415795 -4.3833,-3.498622 -15.85384,-11.845242 -3.02015,-2.176812 -7.06173,-4.702327 -11.68964,-7.316339 l 0.52416,-0.590552 c 11.99891,6.975903 20.49931,13.758189 27.55336,19.094095"
         style="fill:#6e401c;fill-opacity:1;fill-rule:nonzero;stroke:none;stroke-width:0.0185027"
         id="path23137" /><path
         d="m 155.10514,-41.044249 c 5.60674,4.435481 42.63065,23.7351 69.46271,40.19379248 -0.17976,0.49907084 -0.35364,0.92801228 -0.48197,1.23115399 -0.1155,0.27394669 -0.40719,0.42742076 -0.69753,0.37158273 l -6.5746,-1.27020088 -95.55924,-55.92130832 0.47017,-1.403207 c 0.12673,-0.379483 0.57209,-0.543837 0.91711,-0.339381 l 6.77833,4.016711 -1.84835,-1.849443 c 11.86605,5.812389 23.68308,11.922056 27.53337,14.9703"
         style="fill:#793f12;fill-opacity:1;fill-rule:nonzero;stroke:none;stroke-width:0.0191892"
         id="path23141" /><path
         d="m 198.85747,-21.944662 c 2.50023,-0.730433 13.76205,4.540512 26.18734,11.018652 -0.32492,1.8360327 -0.54343,4.0652057 0.0628,5.0074075 0.14364,0.2217655 0.22993,0.4991567 0.27207,0.813608 -14.78655,-7.5918875 -29.75833,-15.8931285 -26.52223,-16.8396675"
         style="fill:#72421d;fill-opacity:1;fill-rule:nonzero;stroke:none;stroke-width:0.0190834"
         id="path23145" /><path
         d="m 229.53868,-21.299719 -0.90716,1.774312 c -26.47368,-14.393174 -52.89255,-29.406316 -77.23943,-43.570875 -1.55784,-0.690795 -10.60026,-4.707759 -14.63249,-7.017625 -2.31104,-1.308276 -4.97749,-2.798748 -7.89242,-4.548596 0.16635,-0.82294 0.32731,-1.54088 0.48101,-2.165419 6.77576,3.994863 12.19951,6.715545 23.1811,11.428958 9.13214,5.230329 46.98976,26.907548 77.00939,44.099245"
         style="fill:#793f12;fill-opacity:1;fill-rule:nonzero;stroke:none;stroke-width:0.018804"
         id="path23149" /><path
         d="m 203.46865,-30.479415 c 6.24984,2.979857 17.83181,8.564852 24.1348,12.968658 l -0.92955,1.816011 c -12.16843,-8.228048 -48.91654,-22.903737 -61.20098,-29.865392 -2.22139,-1.238915 -20.04134,-12.777224 -38.01543,-25.103874 0.41415,-0.565992 0.74435,-1.167513 0.95481,-1.803237 51.73149,33.315542 34.53807,22.676601 75.05635,41.987834"
         style="fill:#6e401c;fill-opacity:1;fill-rule:nonzero;stroke:none;stroke-width:0.0188205"
         id="path23153" /><path
         d="m 232.07109,-28.516538 0.22249,0.276573 c 0.13125,0.165312 0.17139,0.384908 0.10714,0.58543 l -0.67656,2.110563 c -0.008,0.0279 -0.0181,0.05259 -0.0299,0.07618 -3.1182,-1.387187 -6.28436,-2.815013 -9.47488,-4.275399 l -6.12072,-3.24588 c 0,0 -61.07608,-30.009328 -73.75139,-41.567227 0.0454,0.0413 -2.04858,-1.902885 -7.17219,-6.474091 0.0104,0.0082 -0.46988,-0.419026 -1.38284,-1.184436 l 3.32445,-1.952101 c 0.12421,-0.07331 0.27122,-0.100362 0.4153,-0.07828 l 1.77845,0.277397 c 2.26361,1.834718 4.51382,3.806231 6.72256,5.914048 12.6282,11.67056 53.74819,33.383244 86.03806,49.537231"
         style="fill:#793f12;fill-opacity:1;fill-rule:nonzero;stroke:none;stroke-width:0.0187798"
         id="path23157" /><path
         d="m 187.02958,-65.062114 c 12.2524,4.722564 16.73913,6.359876 24.57038,12.176867 2.51008,1.793273 4.3178,4.627755 13.32785,9.453308 0.24197,0.129221 0.48403,0.258303 0.72999,0.387818 l -0.93401,0.669705 c -3.72585,-1.955112 -7.05317,-4.006557 -9.69826,-6.1201 -0.0142,-0.01466 -3.42541,-3.059394 -6.33166,-5.097631 l -2.25412,-1.466296 c -9.11788,-5.578179 -19.75101,-8.142571 -30.02623,-13.018489 -5.47237,-2.559922 -19.67757,-11.228333 -33.7382,-20.2637 0.3664,-0.323167 0.69402,-0.679298 0.94022,-1.073686 30.53195,19.564433 33.71634,20.623839 43.41404,24.352204"
         style="fill:#6e401c;fill-opacity:1;fill-rule:nonzero;stroke:none;stroke-width:0.0179115"
         id="path23161" /><path
         d="m 219.30517,-42.317057 c -3.54175,0.461931 -17.45085,-7.140374 -17.45085,-7.140374 0,0 -27.1902,-12.485563 -23.6307,-14.431127 3.56075,-1.940695 44.62383,21.112158 41.08155,21.571501"
         style="fill:#793f12;fill-opacity:1;fill-rule:nonzero;stroke:none;stroke-width:0.0177716"
         id="path23165" /><path
         d="m 166.83386,-90.751224 5.81517,1.955733 c 0.0506,0.01777 0.10008,0.04096 0.14507,0.0717 l 41.62886,27.4043 c -12.55609,-6.209179 -28.74479,-13.368193 -31.81821,-15.189444 -4.04358,-2.396148 -9.43097,-9.449751 -15.77089,-14.242284"
         style="fill:#7f4a20;fill-opacity:1;fill-rule:nonzero;stroke:none;stroke-width:0.0175381"
         id="path23167" /><path
         d="m 182.82522,-67.330917 c -2.97239,-1.606445 -5.04576,-3.546564 -4.63079,-4.336279 0.41407,-0.788207 3.1599,-0.12738 6.1338,1.479959 2.97328,1.604936 5.04665,3.545055 4.63169,4.33477 -0.41497,0.789715 -3.16142,0.126486 -6.1347,-1.47845"
         style="fill:#793f12;fill-opacity:1;fill-rule:nonzero;stroke:none;stroke-width:0.0175381"
         id="path23169" /><path
         d="M 223.16712,0.98218596 C 220.48645,0.53743192 208.9177,-1.3092426 207.90897,-1.9047616 c -8.57133,-5.0629172 -8.00007,-4.7386762 -8.04751,-4.73019 -5.0986,1.269999 -5.06045,1.3374691 -5.52365,1.1058454 -6.01537,-3.3567789 -10.65375,-5.9748158 -17.11604,-9.8694268 11.73863,5.7185834 17.46013,9.021312 17.64238,8.9661386 0.0893,-0.022554 1.36828,-0.3653131 1.29938,-0.3469868 3.13847,-0.7007155 3.58599,-1.1960175 4.30794,-0.7682086 0.2553,0.1492678 1.21028,0.7111674 1.16072,0.6817976 8.50748,5.0576679 6.58425,4.1483555 8.64943,4.5770472 12.1197,2.52159905 12.74492,2.72088414 13.22811,2.76055907 0.57313,0.0460993 1.22481,-2.28538527 1.36097,-2.72233767 0.29415,-0.9408789 0.75375,-2.3116244 0.41071,-3.2997338 0.54861,1.5829196 -0.36042,4.3712861 -0.94789,5.93522939 -0.10402,0.28099943 -0.63981,0.67287861 -1.1664,0.59721443"
         style="fill:#804b21;fill-opacity:1;fill-rule:nonzero;stroke:none;stroke-width:0.0192032"
         id="path23175" /><path
         d="m 228.92526,-25.740534 c -3.13294,-1.719798 -9.94288,-5.555509 -12.7979,-7.231156 16.05009,7.62746 14.88259,8.287119 15.37261,6.677567 0.0107,-0.03653 0.49153,-1.604718 0.46087,-1.508691 0.0503,-0.206681 -9.31506,-11.399319 -9.44753,-11.895648 -0.20747,-0.702002 0.35152,-1.239232 0.32947,-1.209416 1.79065,-2.276074 4.88793,-4.265262 4.85456,-4.242162 0.0515,-0.03885 0.0528,-0.111321 0.0245,-0.148445 -0.0242,-0.03295 -0.93047,-1.205909 -0.88021,-1.139374 -2.16561,-2.802146 -2.36795,-2.785547 -2.59061,-3.42501 -0.17756,-0.508831 -0.0137,-1.180266 0.48689,-1.379083 0.80867,-0.319925 1.82553,0.788199 2.51421,0.128093 0.27499,-0.261006 0.26226,-0.723131 0.0746,-1.05245 -0.27584,-0.479567 0.13317,-0.106594 -10.95834,-7.865765 11.4251,7.019028 11.21968,6.775014 11.72887,7.506832 0.35341,0.511097 0.46488,1.245899 0.0927,1.744828 -0.69507,0.925613 -1.96982,0.341289 -2.39744,0.560848 -1.34672,0.696306 3.17848,3.222973 2.96626,5.090989 -0.0739,0.645284 -0.59546,0.927327 -1.06737,1.269616 -0.065,0.047 -2.62446,1.900101 -2.58936,1.874087 -0.0854,0.0371 -1.62265,1.486807 -1.54247,1.982777 0.006,0.04467 9.41503,11.352456 9.12632,12.9693 -0.21551,0.636858 -0.34957,1.760157 -0.93946,2.146505 -0.82476,0.542718 -2.0311,-0.422838 -2.82113,-0.854242"
         style="fill:#804b21;fill-opacity:1;fill-rule:nonzero;stroke:none;stroke-width:0.0188198"
         id="path23179" /></g></g></svg>
