<?xml version="1.0" encoding="UTF-8" standalone="no"?>
<svg
   xmlns:dc="http://purl.org/dc/elements/1.1/"
   xmlns:cc="http://creativecommons.org/ns#"
   xmlns:rdf="http://www.w3.org/1999/02/22-rdf-syntax-ns#"
   xmlns:svg="http://www.w3.org/2000/svg"
   xmlns="http://www.w3.org/2000/svg"
   height="16"
   id="Layer_1"
   version="1.1"
   viewBox="0 0 16 16"
   width="16"
   xml:space="preserve"><metadata
     id="metadata148"><rdf:RDF><cc:Work
         rdf:about=""><dc:format>image/svg+xml</dc:format><dc:type
           rdf:resource="http://purl.org/dc/dcmitype/StillImage" /><dc:title></dc:title></cc:Work></rdf:RDF></metadata><defs
     id="defs146" /><g
     id="Leafs"
     transform="matrix(0.25009313,0,0,0.25010171,-8.3364377e-5,-6.2525427e-5)"><g
       id="g100"><path
         d="m 63.417,0.559 c -0.746,-0.745 -1.955,-0.745 -2.7,0 L 45.89,15.377 51.758,4.822 C 52.266,3.909 51.965,2.742 51.086,2.215 50.207,1.689 49.083,2.002 48.575,2.915 L 36.219,25.138 c -0.192,0.347 -0.235,0.727 -0.207,1.098 -0.01,0.313 0.034,0.628 0.206,0.916 0.293,0.492 0.807,0.765 1.36,0.832 0.006,10e-4 0.012,0 0.018,10e-4 0.398,0.045 0.815,-0.002 1.195,-0.215 l 22.24,-12.437 c 0.914,-0.511 1.243,-1.615 0.735,-2.468 -0.507,-0.853 -1.659,-1.129 -2.573,-0.618 L 48.362,18.304 63.417,3.257 c 0.746,-0.745 0.746,-1.953 0,-2.698 z m -21.005,21.072 0.139,-0.249 c 0.006,0.006 0.007,0.013 0.012,0.019 0.036,0.035 0.083,0.047 0.12,0.079 z"
         style="fill:#75a64b"
         id="path98" /></g></g><g
     id="Body_1_"
     transform="matrix(0.25009313,0,0,0.25010171,-8.3364377e-5,-6.2525427e-5)"><g
       id="g105"><path
         d="m 50.99,21.462 c -2.824,-2.824 -4.237,-4.237 -4.237,-4.237 0,0 -1.414,-1.414 -4.238,-4.237 -2.823,-2.823 -5.758,-5.542 -12.713,1.413 -2.958,2.956 -28.251,39.548 -28.251,39.548 0,0 -3.489,4.986 0,8.475 3.488,3.488 8.475,0 8.475,0 0,0 36.594,-25.292 39.552,-28.249 6.955,-6.955 4.236,-9.889 1.412,-12.713 z"
         style="fill:#fb8512"
         id="path103" /></g></g><g
     id="Stripes"
     transform="matrix(0.25009313,0,0,0.25010171,-8.3364377e-5,-6.2525427e-5)"><g
       id="g110"><path
         d="M 17.275,32.556 C 17.117,32.398 16.931,32.29 16.74,32.2 c -0.719,1.019 -1.439,2.042 -2.158,3.063 l 4.14,4.147 c 0.745,0.745 1.953,0.745 2.698,0 0.746,-0.746 0.746,-1.955 0,-2.701 z m -2,13.999 c -0.744,-0.746 -1.953,-0.746 -2.698,0 -0.745,0.745 -0.745,1.954 0,2.7 l 2.145,2.153 c 0.745,0.746 1.953,0.746 2.698,0 0.746,-0.746 0.746,-1.955 0,-2.7 z M 35.42,29.41 c 0.746,-0.746 0.746,-1.955 0,-2.701 l -8.145,-8.152 c -0.146,-0.146 -0.32,-0.241 -0.496,-0.33 -0.664,0.893 -1.408,1.907 -2.213,3.014 0.005,0.005 0.006,0.012 0.011,0.017 l 8.145,8.153 c 0.745,0.744 1.953,0.744 2.698,-0.001 z m 16,-2.701 -8.145,-8.152 c -0.744,-0.746 -1.953,-0.746 -2.698,0 -0.745,0.745 -0.745,1.954 0,2.7 l 8.145,8.152 c 0.745,0.746 1.953,0.746 2.698,0 0.745,-0.745 0.745,-1.954 0,-2.7 z M 32.577,38.556 c -0.745,0.745 -0.745,1.954 0,2.7 l 3.165,3.172 c 1.082,-0.769 2.135,-1.52 3.151,-2.247 l -3.617,-3.625 c -0.745,-0.746 -1.954,-0.746 -2.699,0 z"
         style="fill:#ab6017"
         id="path108" /></g></g><g
     id="g113"
     transform="matrix(0.25009313,0,0,0.25010171,-8.3364377e-5,-6.2525427e-5)" /><g
     id="g115"
     transform="matrix(0.25009313,0,0,0.25010171,-8.3364377e-5,-6.2525427e-5)" /><g
     id="g117"
     transform="matrix(0.25009313,0,0,0.25010171,-8.3364377e-5,-6.2525427e-5)" /><g
     id="g119"
     transform="matrix(0.25009313,0,0,0.25010171,-8.3364377e-5,-6.2525427e-5)" /><g
     id="g121"
     transform="matrix(0.25009313,0,0,0.25010171,-8.3364377e-5,-6.2525427e-5)" /><g
     id="g123"
     transform="matrix(0.25009313,0,0,0.25010171,-8.3364377e-5,-6.2525427e-5)" /><g
     id="g125"
     transform="matrix(0.25009313,0,0,0.25010171,-8.3364377e-5,-6.2525427e-5)" /><g
     id="g127"
     transform="matrix(0.25009313,0,0,0.25010171,-8.3364377e-5,-6.2525427e-5)" /><g
     id="g129"
     transform="matrix(0.25009313,0,0,0.25010171,-8.3364377e-5,-6.2525427e-5)" /><g
     id="g131"
     transform="matrix(0.25009313,0,0,0.25010171,-8.3364377e-5,-6.2525427e-5)" /><g
     id="g133"
     transform="matrix(0.25009313,0,0,0.25010171,-8.3364377e-5,-6.2525427e-5)" /><g
     id="g135"
     transform="matrix(0.25009313,0,0,0.25010171,-8.3364377e-5,-6.2525427e-5)" /><g
     id="g137"
     transform="matrix(0.25009313,0,0,0.25010171,-8.3364377e-5,-6.2525427e-5)" /><g
     id="g139"
     transform="matrix(0.25009313,0,0,0.25010171,-8.3364377e-5,-6.2525427e-5)" /><g
     id="g141"
     transform="matrix(0.25009313,0,0,0.25010171,-8.3364377e-5,-6.2525427e-5)" /></svg>
